<svg width="565.000000" height="338.766235" viewBox="0 0 565 338.766" fill="none" xmlns="http://www.w3.org/2000/svg" xmlns:xlink="http://www.w3.org/1999/xlink">
	<desc>
			Created with Pixso.
	</desc>
	<defs>
		<clipPath id="clip1_142">
			<rect id="undraw_under_construction_46pa 1" width="565.000000" height="338.766235" fill="white" fill-opacity="0"/>
		</clipPath>
	</defs>
	<rect id="undraw_under_construction_46pa 1" width="565.000000" height="338.766235" fill="#FFFFFF" fill-opacity="0"/>
	<g clip-path="url(#clip1_142)">
		<g opacity="0.150000">
			<path id="Vector" d="M565.002 217.581C565.011 226.76 563.872 235.905 561.61 244.815C560.849 247.817 559.965 250.756 558.957 253.634C557.725 257.185 556.297 260.669 554.678 264.071C553.863 265.791 553.001 267.478 552.093 269.13C552.108 278.542 550.12 287.855 546.255 296.48C539.268 311.955 526.81 324.468 511.151 331.738C501.36 336.291 490.66 338.686 479.812 338.752L107.257 338.752C90.6818 338.786 74.3924 334.542 60.0454 326.449L59.8248 326.328C57.7812 325.162 55.7889 323.927 53.8477 322.624C49.4801 319.683 45.3767 316.385 41.5817 312.767C36.4453 307.874 31.9193 302.407 28.0974 296.48C19.1212 282.587 14.3661 266.499 14.3828 250.08C5.29242 234.532 -0.00823975 215.907 -0.00823975 195.894C-0.00823975 170.643 8.41528 147.609 22.2546 130.172C25.1399 126.529 28.3003 123.101 31.7095 119.917C35.0734 116.766 38.6889 113.882 42.522 111.29C45.5887 109.214 48.7938 107.339 52.116 105.678C53.5023 104.991 54.8934 104.341 56.3085 103.738C57.551 103.2 58.8078 102.7 60.079 102.228C61.6044 101.663 63.149 101.144 64.7129 100.67C66.2767 100.197 67.8198 99.782 69.342 99.4266C71.5806 98.8935 73.8575 98.4602 76.1729 98.1266C78.0917 97.8507 80.0105 97.659 81.9293 97.5141C83.4548 97.4018 84.9946 97.3411 86.544 97.3224L87.3835 97.3224C89.0912 97.3224 90.7894 97.3878 92.4731 97.5C92.6506 97.154 92.8425 96.8033 93.02 96.462C93.6915 95.2134 94.3871 93.9696 95.0875 92.7538C95.0859 92.743 95.0859 92.732 95.0875 92.7211C95.2074 92.506 95.3273 92.2956 95.4521 92.0898C96.0181 91.0938 96.6082 90.1072 97.2126 89.1299C97.4908 88.6623 97.7642 88.2227 98.0472 87.7832C98.1071 87.674 98.1727 87.5678 98.2439 87.4652C98.5317 86.9976 98.8243 86.53 99.1218 86.0624C100.602 83.7555 102.142 81.4892 103.741 79.2634L104.149 78.6929C104.398 78.3469 104.629 78.0102 104.907 77.6642C105.569 76.7617 106.25 75.8546 106.936 74.9661C107.416 74.3302 107.895 73.6989 108.414 73.0957C109.661 71.537 110.94 69.9783 112.251 68.4196C113.562 66.861 114.925 65.3225 116.338 63.8044C116.53 63.594 116.722 63.3882 116.923 63.1825L118.972 61.0034C119.072 60.9005 119.159 60.807 119.255 60.7135C119.499 60.4563 119.734 60.1991 119.998 59.9513C121.097 58.815 122.224 57.7021 123.356 56.5939C129.118 51.0001 135.255 45.7872 141.729 40.9899C141.983 40.7935 142.242 40.6065 142.496 40.4194C143.715 39.5263 144.952 38.6425 146.19 37.7728C152.997 33.0123 160.113 28.6857 167.493 24.8201C168.002 24.5348 168.52 24.2683 169.043 24.0065C175.659 20.5944 182.464 17.541 189.425 14.8601C193.22 13.3965 197.1 12.0217 201.005 10.7639C203.605 9.93153 206.215 9.14127 208.858 8.39778C212.99 7.23811 217.15 6.19847 221.34 5.27885C233.682 2.57929 246.238 0.911674 258.871 0.294174C262.709 0.104012 266.59 0.0058136 270.514 -0.000419617C289.448 -0.0248566 308.308 2.3007 326.639 6.92014C326.828 7.19935 327.087 7.42696 327.392 7.58157C327.697 7.73618 328.037 7.81269 328.38 7.80392L329.992 7.80392C330.692 7.99096 331.388 8.178 332.088 8.3744C335.999 9.47171 339.854 10.6703 343.654 11.9703L344.613 12.307C353.99 15.5573 363.114 19.4642 371.913 23.9971C379.845 28.0735 387.481 32.6729 394.77 37.7634C395.893 38.549 396.999 39.3408 398.09 40.1389C399.414 39.3127 400.76 38.5209 402.129 37.7634C407.415 34.8289 413.029 32.4958 418.861 30.8101C431.054 27.2929 443.955 26.801 456.393 29.3792C472.343 32.6759 486.782 40.859 498.443 52.4977C503.191 57.2597 507.418 62.4908 511.055 68.1063C511.318 68.5085 511.582 68.9153 511.836 69.3268C514.962 74.297 517.648 79.5171 519.867 84.9308C519.948 85.1319 520.03 85.3189 520.102 85.5153C522.15 90.5847 523.801 95.7977 525.043 101.11C525.1 101.381 525.167 101.648 525.225 101.919C526.386 107.06 527.175 112.274 527.585 117.523C527.585 117.71 527.585 117.902 527.623 118.098C527.825 120.813 527.927 123.557 527.93 126.328C527.93 128.806 527.844 131.266 527.686 133.707C527.686 133.973 527.647 134.249 527.623 134.525C527.58 135.231 527.518 135.928 527.456 136.639C531.119 139.519 534.548 142.673 537.711 146.07C539.109 147.557 540.462 149.1 541.77 150.7C545.754 155.567 549.255 160.792 552.227 166.304C560.339 181.23 565.002 198.788 565.002 217.581Z" fill="#005AD5" fill-opacity="1.000000" fill-rule="nonzero"/>
		</g>
		<g opacity="0.100000">
			<path id="Vector" d="M510.794 330.008C510.794 333.202 499.507 336.194 479.81 338.766L107.256 338.766C90.6804 338.801 74.391 334.556 60.044 326.463L59.8234 326.342C65.4838 324.331 75.7014 322.456 89.6079 320.763L90.2315 320.688C96.4677 319.945 103.438 319.239 111.055 318.57C111.247 318.57 111.444 318.542 111.636 318.519C117.68 317.995 124.11 317.504 130.924 317.046C131.14 317.046 131.351 317.008 131.567 316.999C134.196 316.815 136.879 316.64 139.617 316.475L140.672 316.41C160.603 315.203 183.26 314.24 207.83 313.604L207.859 313.604C211.3 313.511 214.778 313.428 218.292 313.356C222.2 313.266 226.156 313.186 230.16 313.118C233.216 313.052 236.31 313.006 239.413 312.959L239.485 312.959C253.488 312.753 267.956 312.65 282.749 312.65C319.331 312.65 353.908 313.3 384.546 314.469L384.633 314.469C389.343 314.647 393.968 314.843 398.477 315.044L402.315 315.222C407.403 315.459 412.359 315.713 417.185 315.984C473.934 319.131 510.794 324.242 510.794 330.008Z" fill="#005AD5" fill-opacity="1.000000" fill-rule="nonzero"/>
		</g>
		<g opacity="0.200000">
			<g opacity="0.200000">
				<path id="Vector" d="M326.33 310.504C326.315 311.008 326.255 311.51 326.153 312.005C322.814 311.487 319.456 311.02 316.079 310.602C316.079 310.471 316.079 310.335 316.079 310.2C316.11 308.798 316.524 307.429 317.278 306.234C318.266 304.71 319.768 303.756 321.423 303.808C323.078 303.859 324.512 304.902 325.4 306.478C326.071 307.715 326.392 309.105 326.33 310.504Z" fill="#3F3D56" fill-opacity="1.000000" fill-rule="nonzero"/>
			</g>
			<g opacity="0.200000">
				<path id="Vector" d="M321.688 295.808C324.521 295.895 326.723 298.897 326.606 302.513C326.489 306.13 324.097 308.99 321.263 308.903C318.43 308.816 316.228 305.814 316.345 302.197C316.463 298.581 318.854 295.72 321.688 295.808Z" fill="#3F3D56" fill-opacity="1.000000" fill-rule="evenodd"/>
			</g>
			<g opacity="0.200000">
				<path id="Vector" d="M321.95 287.802C324.783 287.889 326.985 290.891 326.868 294.508C326.75 298.124 324.358 300.985 321.525 300.897C318.692 300.81 316.49 297.808 316.607 294.191C316.724 290.575 319.116 287.714 321.95 287.802Z" fill="#3F3D56" fill-opacity="1.000000" fill-rule="evenodd"/>
			</g>
			<g opacity="0.200000">
				<path id="Vector" d="M322.206 279.797C325.04 279.884 327.242 282.886 327.124 286.503C327.007 290.119 324.615 292.98 321.782 292.892C318.949 292.805 316.747 289.803 316.864 286.187C316.981 282.57 319.373 279.709 322.206 279.797Z" fill="#3F3D56" fill-opacity="1.000000" fill-rule="evenodd"/>
			</g>
			<g opacity="0.200000">
				<path id="Vector" d="M322.463 271.791C325.297 271.878 327.499 274.88 327.381 278.497C327.264 282.113 324.872 284.974 322.039 284.887C319.205 284.799 317.004 281.797 317.121 278.181C317.238 274.564 319.63 271.704 322.463 271.791Z" fill="#3F3D56" fill-opacity="1.000000" fill-rule="evenodd"/>
			</g>
			<g opacity="0.200000">
				<path id="Vector" d="M304.791 222.949C304.116 222.058 303.507 221.12 302.969 220.144L316.525 218.4L301.932 218.058C300.63 215.047 299.972 211.809 299.997 208.542C300.023 205.274 300.732 202.046 302.081 199.055L321.327 209.553L303.698 196.067C305.476 193.263 307.828 190.847 310.608 188.969C313.387 187.091 316.534 185.792 319.852 185.153C323.169 184.514 326.586 184.548 329.89 185.255C333.193 185.961 336.311 187.323 339.05 189.257C341.789 191.19 344.089 193.654 345.808 196.493C347.526 199.332 348.625 202.486 349.037 205.758C349.449 209.03 349.164 212.35 348.2 215.51C347.236 218.67 345.615 221.602 343.436 224.123C344.487 225.51 345.38 227.004 346.099 228.579L328.306 236.903L347.173 231.371C348.361 235.193 348.553 239.243 347.73 243.154C346.908 247.066 345.097 250.716 342.462 253.774C345.202 257.397 346.84 261.698 347.189 266.185C347.539 270.673 346.586 275.165 344.439 279.15C342.293 283.134 339.039 286.449 335.051 288.716C331.062 290.983 326.5 292.11 321.885 291.968C317.271 291.826 312.791 290.421 308.957 287.914C305.123 285.407 302.09 281.899 300.205 277.79C298.32 273.682 297.659 269.14 298.298 264.683C298.937 260.226 300.85 256.034 303.818 252.586C300.545 248.257 298.861 242.981 299.035 237.606C299.209 232.231 301.231 227.069 304.777 222.949L304.791 222.949Z" fill="#005AD5" fill-opacity="1.000000" fill-rule="nonzero"/>
			</g>
			<g opacity="0.100000">
				<path id="Vector" d="M348.219 239.119C348.051 244.497 346.022 249.661 342.462 253.773C345.202 257.396 346.84 261.697 347.189 266.184C347.539 270.672 346.586 275.165 344.439 279.149C342.293 283.133 339.039 286.448 335.051 288.715C331.062 290.982 326.5 292.109 321.885 291.967C317.271 291.825 312.791 290.42 308.957 287.913C305.123 285.406 302.09 281.898 300.205 277.789C298.32 273.681 297.659 269.139 298.298 264.682C298.937 260.225 300.85 256.033 303.818 252.586C300.666 248.41 348.305 236.43 348.219 239.119Z" fill="#000000" fill-opacity="1.000000" fill-rule="nonzero"/>
			</g>
		</g>
		<g opacity="0.200000">
			<g opacity="0.200000">
				<path id="Vector" d="M253.416 310.504C253.4 311.008 253.341 311.51 253.238 312.005C249.9 311.487 246.542 311.02 243.165 310.602C243.165 310.471 243.165 310.335 243.165 310.2C243.196 308.798 243.61 307.429 244.364 306.234C245.352 304.71 246.854 303.756 248.508 303.808C250.163 303.859 251.598 304.902 252.485 306.478C253.156 307.715 253.478 309.105 253.416 310.504Z" fill="#3F3D56" fill-opacity="1.000000" fill-rule="nonzero"/>
			</g>
			<g opacity="0.200000">
				<path id="Vector" d="M248.768 295.81C251.602 295.897 253.803 298.9 253.686 302.516C253.569 306.132 251.177 308.993 248.344 308.906C245.51 308.818 243.308 305.816 243.426 302.2C243.543 298.584 245.935 295.723 248.768 295.81Z" fill="#3F3D56" fill-opacity="1.000000" fill-rule="evenodd"/>
			</g>
			<g opacity="0.200000">
				<path id="Vector" d="M249.03 287.804C251.863 287.891 254.065 290.893 253.948 294.51C253.831 298.126 251.439 300.987 248.605 300.899C245.772 300.812 243.57 297.81 243.688 294.194C243.805 290.577 246.197 287.716 249.03 287.804Z" fill="#3F3D56" fill-opacity="1.000000" fill-rule="evenodd"/>
			</g>
			<g opacity="0.200000">
				<path id="Vector" d="M249.287 279.799C252.12 279.886 254.322 282.888 254.205 286.505C254.087 290.121 251.696 292.982 248.862 292.894C246.029 292.807 243.827 289.805 243.944 286.188C244.062 282.572 246.453 279.711 249.287 279.799Z" fill="#3F3D56" fill-opacity="1.000000" fill-rule="evenodd"/>
			</g>
			<g opacity="0.200000">
				<path id="Vector" d="M249.544 271.793C252.377 271.88 254.579 274.882 254.462 278.498C254.344 282.115 251.953 284.976 249.119 284.888C246.286 284.801 244.084 281.799 244.201 278.182C244.319 274.566 246.71 271.705 249.544 271.793Z" fill="#3F3D56" fill-opacity="1.000000" fill-rule="evenodd"/>
			</g>
			<g opacity="0.200000">
				<path id="Vector" d="M231.877 222.949C231.202 222.058 230.593 221.12 230.054 220.144L243.611 218.4L229.018 218.058C227.716 215.047 227.058 211.809 227.083 208.542C227.109 205.274 227.818 202.046 229.167 199.055L248.413 209.553L230.784 196.067C232.562 193.263 234.914 190.847 237.694 188.969C240.473 187.091 243.62 185.792 246.938 185.153C250.255 184.514 253.672 184.548 256.975 185.255C260.279 185.961 263.397 187.323 266.136 189.257C268.875 191.19 271.175 193.654 272.893 196.493C274.612 199.332 275.711 202.486 276.123 205.758C276.534 209.03 276.249 212.35 275.286 215.51C274.322 218.67 272.7 221.602 270.522 224.123C271.573 225.51 272.465 227.004 273.184 228.579L255.392 236.903L274.259 231.371C275.447 235.193 275.638 239.243 274.816 243.154C273.993 247.066 272.183 250.716 269.548 253.774C272.287 257.397 273.925 261.698 274.275 266.185C274.624 270.673 273.671 275.165 271.525 279.15C269.378 283.134 266.125 286.449 262.136 288.716C258.148 290.983 253.586 292.11 248.971 291.968C244.357 291.826 239.876 290.421 236.042 287.914C232.208 285.407 229.176 281.899 227.291 277.79C225.406 273.682 224.745 269.14 225.384 264.683C226.023 260.226 227.936 256.034 230.904 252.586C227.631 248.257 225.946 242.981 226.12 237.606C226.294 232.231 228.317 227.069 231.863 222.949L231.877 222.949Z" fill="#005AD5" fill-opacity="1.000000" fill-rule="nonzero"/>
			</g>
			<g opacity="0.100000">
				<path id="Vector" d="M275.304 239.119C275.137 244.497 273.108 249.661 269.548 253.773C272.287 257.396 273.925 261.697 274.275 266.184C274.624 270.672 273.671 275.165 271.525 279.149C269.378 283.133 266.125 286.448 262.136 288.715C258.148 290.982 253.586 292.109 248.971 291.967C244.357 291.825 239.876 290.42 236.042 287.913C232.208 285.406 229.176 281.898 227.291 277.789C225.406 273.681 224.745 269.139 225.384 264.682C226.023 260.225 227.936 256.033 230.904 252.586C227.752 248.41 275.391 236.43 275.304 239.119Z" fill="#000000" fill-opacity="1.000000" fill-rule="nonzero"/>
			</g>
		</g>
		<g opacity="0.200000">
			<g opacity="0.200000">
				<path id="Vector" d="M452.587 315.619C452.55 316.575 452.433 317.526 452.237 318.462C445.809 317.462 439.335 316.567 432.814 315.778C432.814 315.526 432.814 315.269 432.814 315.007C432.875 312.306 433.673 309.671 435.126 307.371C437.045 304.439 439.923 302.601 443.103 302.695C446.284 302.788 449.052 304.804 450.779 307.839C452.081 310.229 452.705 312.915 452.587 315.619Z" fill="#3F3D56" fill-opacity="1.000000" fill-rule="nonzero"/>
			</g>
			<g opacity="0.200000">
				<path id="Vector" d="M443.636 287.31C449.094 287.478 453.335 293.26 453.109 300.224C452.884 307.188 448.276 312.698 442.819 312.529C437.361 312.361 433.12 306.58 433.346 299.615C433.572 292.651 438.179 287.142 443.636 287.31Z" fill="#3F3D56" fill-opacity="1.000000" fill-rule="evenodd"/>
			</g>
			<g opacity="0.200000">
				<path id="Vector" d="M444.135 271.898C449.592 272.066 453.833 277.848 453.608 284.812C453.382 291.776 448.775 297.286 443.317 297.117C437.86 296.949 433.618 291.167 433.844 284.203C434.07 277.239 438.677 271.73 444.135 271.898Z" fill="#3F3D56" fill-opacity="1.000000" fill-rule="evenodd"/>
			</g>
			<g opacity="0.200000">
				<path id="Vector" d="M444.638 256.485C450.096 256.653 454.337 262.435 454.111 269.399C453.885 276.363 449.278 281.872 443.821 281.704C438.363 281.536 434.122 275.754 434.348 268.79C434.573 261.826 439.181 256.317 444.638 256.485Z" fill="#3F3D56" fill-opacity="1.000000" fill-rule="evenodd"/>
			</g>
			<g opacity="0.200000">
				<path id="Vector" d="M444.549 240.38C450.009 240.54 454.262 246.317 454.047 253.285C453.833 260.253 449.233 265.772 443.772 265.612C438.312 265.452 434.06 259.674 434.274 252.707C434.488 245.739 439.089 240.22 444.549 240.38Z" fill="#3F3D56" fill-opacity="1.000000" fill-rule="evenodd"/>
			</g>
			<g opacity="0.200000">
				<path id="Vector" d="M411.117 147.066C409.823 145.35 408.651 143.548 407.611 141.675L433.706 138.317L405.62 137.658C403.111 131.862 401.842 125.628 401.89 119.337C401.937 113.047 403.301 106.832 405.898 101.073L442.955 121.278L409.021 95.3164C412.452 89.9314 416.984 85.2931 422.335 81.6903C427.685 78.0876 433.74 75.5977 440.121 74.3759C446.502 73.154 453.073 73.2264 459.424 74.5885C465.775 75.9505 471.77 78.5732 477.036 82.2928C482.302 86.0125 486.725 90.7495 490.031 96.2086C493.336 101.668 495.453 107.732 496.249 114.023C497.044 120.315 496.502 126.699 494.656 132.777C492.81 138.855 489.699 144.498 485.518 149.353C487.539 152.025 489.258 154.902 490.646 157.933L456.391 173.968L492.709 163.306C494.998 170.654 495.37 178.443 493.793 185.967C492.216 193.491 488.739 200.512 483.676 206.396C488.948 213.37 492.101 221.65 492.773 230.289C493.445 238.927 491.61 247.576 487.478 255.246C483.345 262.915 477.082 269.297 469.404 273.66C461.726 278.023 452.944 280.193 444.061 279.919C435.178 279.647 426.553 276.942 419.172 272.116C411.792 267.29 405.953 260.537 402.324 252.628C398.696 244.72 397.423 235.976 398.652 227.396C399.881 218.816 403.563 210.746 409.275 204.109C402.979 195.775 399.737 185.62 400.071 175.275C400.405 164.93 404.295 154.993 411.117 147.062L411.117 147.066Z" fill="#005AD5" fill-opacity="1.000000" fill-rule="nonzero"/>
			</g>
			<g opacity="0.100000">
				<path id="Vector" d="M494.729 178.19C494.414 188.538 490.527 198.479 483.696 206.406C488.968 213.38 492.12 221.66 492.793 230.298C493.465 238.937 491.63 247.585 487.497 255.255C483.364 262.925 477.101 269.306 469.423 273.669C461.745 278.033 452.963 280.202 444.08 279.929C435.197 279.656 426.572 276.952 419.191 272.126C411.81 267.299 405.972 260.546 402.343 252.638C398.714 244.73 397.442 235.986 398.671 227.406C399.9 218.825 403.581 210.756 409.294 204.119C403.182 196.072 494.897 173.014 494.729 178.19Z" fill="#000000" fill-opacity="1.000000" fill-rule="nonzero"/>
			</g>
		</g>
		<path id="Vector" d="M75.7062 316.443L80.7382 316.429L87.833 316.429L96.8033 174.379L185.639 29.8753L181.777 25.8352L181.777 15.604L85.7031 171.031L75.7062 316.443Z" fill="#F1C0C0" fill-opacity="1.000000" fill-rule="nonzero"/>
		<g opacity="0.100000">
			<path id="Vector" d="M81.2756 316.429L87.8331 316.429L96.8035 174.38L185.639 29.8756L181.777 25.8354L90.1452 172.215L81.2756 316.429Z" fill="#000000" fill-opacity="1.000000" fill-rule="nonzero"/>
		</g>
		<path id="Vector" d="M60.8788 317.626L291.063 334.796L291.259 334.81L514.027 321.456L514.195 321.446L514.195 312.276L268.733 307.886L63.9441 307.694L62.4474 307.694L62.2843 308.723L60.8788 317.626Z" fill="#F1C0C0" fill-opacity="1.000000" fill-rule="nonzero"/>
		<g opacity="0.100000">
			<path id="Vector" d="M60.8788 317.626L291.063 334.796L291.259 334.81L514.027 321.456L514.195 321.278L514.195 312.468L513.998 312.468L291.063 319.725L63.9441 307.694L63.9105 307.694L63.5075 307.951L62.2843 308.723L60.8788 317.626Z" fill="#000000" fill-opacity="1.000000" fill-rule="nonzero"/>
		</g>
		<g opacity="0.100000">
			<path id="Vector" d="M60.8788 317.625L291.063 334.796L291.063 319.725L63.5075 307.951L62.2843 308.722L60.8788 317.625Z" fill="#000000" fill-opacity="1.000000" fill-rule="nonzero"/>
		</g>
		<path id="Vector" d="M181.749 25.6434L283.229 131.818L280.092 318.58L288.712 319.594L288.856 319.613L297.476 319.613L298.508 139.837L488.531 201.711L491.735 311.879L498.672 312.636L501.022 312.894L495.583 194.07L296.939 126.09L188.018 15.7114L181.749 15.7114L181.749 25.6434Z" fill="#F1C0C0" fill-opacity="1.000000" fill-rule="nonzero"/>
		<g opacity="0.100000">
			<path id="Vector" d="M297.726 136.401L298.508 139.838L488.531 201.711L491.735 311.879L498.672 312.637L493.232 199.42L297.726 136.401Z" fill="#000000" fill-opacity="1.000000" fill-rule="nonzero"/>
		</g>
		<g opacity="0.100000">
			<path id="Vector" d="M181.749 25.6434L283.229 131.818L280.092 318.58L288.712 319.594L291.063 125.706L181.749 15.7114L181.749 25.6434Z" fill="#000000" fill-opacity="1.000000" fill-rule="nonzero"/>
		</g>
		<path id="Vector" d="M298.095 211.353L367.791 224.731L367.815 224.736L489.884 248.177L495.472 245.993L495.453 245.61L495.089 238.011L298.167 199.223L298.095 211.353Z" fill="#F1C0C0" fill-opacity="1.000000" fill-rule="nonzero"/>
		<g opacity="0.100000">
			<path id="Vector" d="M367.815 224.736L489.884 248.177L495.472 245.993L495.453 245.61L367.815 224.736Z" fill="#000000" fill-opacity="1.000000" fill-rule="nonzero"/>
		</g>
		<path id="Vector" d="M372.482 163.923L374.367 265.085L375.341 316.985L383.923 316.704L389.324 316.526L387.645 165.387L383.923 164.181L383.107 163.923L372.482 163.923Z" fill="#F1C0C0" fill-opacity="1.000000" fill-rule="nonzero"/>
		<g opacity="0.100000">
			<path id="Vector" d="M372.559 163.901L372.559 163.924L374.367 265.086L375.341 316.985L383.923 316.705L383.923 163.901L372.559 163.901Z" fill="#000000" fill-opacity="1.000000" fill-rule="nonzero"/>
		</g>
		<path id="Vector" d="M238.056 189.759C238.559 190.026 239.041 190.331 239.495 190.671C240.032 191.129 240.515 191.645 240.934 192.209C242.992 194.804 244.892 197.821 244.69 201.094C244.694 201.57 244.602 202.042 244.419 202.484C244.235 202.925 243.964 203.327 243.62 203.666C242.771 204.372 241.553 204.404 240.44 204.404C239.231 204.404 237.96 204.404 236.914 203.797C235.868 203.189 234.995 202.006 233.758 202.034C233.583 202.062 233.405 202.062 233.23 202.034C232.803 201.898 232.717 201.351 232.439 201.005C231.959 200.383 230.947 200.537 230.194 200.809C229.44 201.08 228.606 201.487 227.862 201.173C227.431 200.951 227.078 200.607 226.85 200.187C225.07 197.381 224.691 194.01 224.356 190.75C224.149 188.768 222.576 182.006 226.917 183.544C228.836 184.218 230.63 185.565 232.376 186.551L238.056 189.759Z" fill="#3F3D56" fill-opacity="1.000000" fill-rule="nonzero"/>
		<path id="Vector" d="M233.767 190.427C234.155 190.699 234.625 190.837 235.102 190.818C235.58 190.8 236.037 190.626 236.401 190.325C237.115 189.695 237.57 188.835 237.682 187.902C238.161 187.757 238.406 188.37 238.713 188.744C239.25 189.38 240.344 189.371 240.833 190.049C241.174 190.516 241.097 191.166 241.337 191.695C241.649 192.377 242.421 192.733 242.949 193.285C243.447 193.887 243.807 194.587 244.004 195.337L244.791 197.638C245.167 198.595 245.409 199.597 245.51 200.617C245.56 201.126 245.505 201.641 245.348 202.13C245.192 202.619 244.937 203.072 244.599 203.464C243.544 204.573 241.812 204.689 240.282 204.657C239.771 204.667 239.26 204.609 238.766 204.484C237.408 204.072 236.54 202.74 236.18 201.397C235.82 200.055 235.859 198.648 235.648 197.273C235.42 195.923 235.017 194.606 234.448 193.355C234.026 192.382 232.865 190.932 232.885 189.899C233.23 189.899 233.479 190.208 233.767 190.427Z" fill="#3F3D56" fill-opacity="1.000000" fill-rule="nonzero"/>
		<path id="Vector" d="M235.489 185.691C235.265 185.027 235.134 184.336 235.101 183.638C235.101 182.235 235.758 180.917 236.42 179.664L230.937 180.388C230.275 180.477 229.536 180.608 229.162 181.146C229.02 181.412 228.946 181.708 228.946 182.009C228.946 182.309 229.02 182.605 229.162 182.871C229.437 183.405 229.656 183.964 229.815 184.541C229.827 185.045 229.886 185.548 229.992 186.042C230.163 186.405 230.402 186.733 230.697 187.01C232.266 188.702 233.441 190.699 234.612 192.677C234.578 192.621 237.917 190.1 237.782 189.277C237.706 188.81 236.741 188.249 236.434 187.8C236.01 187.148 235.692 186.437 235.489 185.691Z" fill="#FBBEBE" fill-opacity="1.000000" fill-rule="nonzero"/>
		<path id="Vector" d="M282.5 167.421L282.5 172.027L201.589 187.412L197.392 189.89L182.91 189.89L182.91 187.295L262.405 168.572L282.5 167.421Z" fill="#F1C0C0" fill-opacity="1.000000" fill-rule="nonzero"/>
		<g opacity="0.100000">
			<path id="Vector" d="M282.5 172.028L201.589 187.412L197.392 189.89L182.91 189.89L262.995 173.183L282.5 172.028Z" fill="#000000" fill-opacity="1.000000" fill-rule="nonzero"/>
		</g>
		<path id="Vector" d="M217.539 298.173C216.638 297.109 215.393 296.373 214.008 296.086C212.623 295.799 211.179 295.978 209.912 296.593C209.64 296.717 209.401 296.899 209.211 297.126C208.732 297.78 209.039 298.683 209.082 299.492C209.192 301.465 207.58 303.069 206.132 304.448C205.355 305.187 204.563 305.977 204.213 306.983C203.863 307.988 204.122 309.265 205.062 309.788C205.472 309.989 205.919 310.11 206.376 310.144C207.91 310.435 209.482 310.478 211.03 310.27C212.56 309.985 214.061 309.138 214.723 307.764C214.851 307.391 215.062 307.051 215.342 306.768C216.186 306.118 217.481 306.88 218.441 306.417C219.232 306.034 219.266 305.43 219.276 304.635C219.304 302.438 218.969 299.95 217.539 298.173Z" fill="#005AD5" fill-opacity="1.000000" fill-rule="nonzero"/>
		<path id="Vector" d="M229.052 298.089C229.642 299.604 229.724 301.255 229.8 302.873C229.843 303.808 229.872 304.809 229.354 305.599C228.836 306.389 227.824 306.805 226.855 307.002C224.855 307.404 222.538 307.025 221.247 305.477C220.259 304.294 220.053 302.672 220.235 301.138C220.389 299.88 220.715 298.407 219.789 297.514C219.549 297.275 219.237 297.107 219.017 296.85C218.537 296.279 218.614 295.419 218.873 294.718C219.21 294.047 219.463 293.339 219.626 292.609C219.664 292.263 226.121 292.852 226.716 293.137C227.526 293.525 227.402 294.175 227.646 294.961C227.987 296.055 228.639 297.042 229.052 298.089Z" fill="#005AD5" fill-opacity="1.000000" fill-rule="nonzero"/>
		<path id="Vector" d="M230.237 230.913C231.503 231.713 231.992 233.284 232.189 234.743C232.731 238.741 231.781 242.781 231.709 246.816C231.642 252.47 233.321 258.226 231.887 263.701C231.028 266.975 231.757 270.716 230.952 274.022C230.712 275.003 230.27 275.929 230.04 276.911C229.56 279.039 230.064 281.265 230.74 283.346C230.956 283.906 231.094 284.493 231.148 285.09C231.116 286.008 230.877 286.909 230.448 287.727L227.57 294.362C227.248 295.106 225.982 295.227 225.171 295.326C223.646 295.503 221.943 295.63 220.729 294.708C219.515 293.787 219.223 292.244 219.036 290.804C218.677 288.039 218.517 285.253 218.556 282.466C218.609 281.739 218.542 281.008 218.359 280.301C218.096 279.502 217.515 278.81 217.357 277.963C217.155 276.869 217.726 275.794 217.937 274.69C218.082 273.682 218.066 272.659 217.889 271.655C217.702 270.159 217.486 268.663 217.242 267.176C216.896 265.095 217.39 263.042 217.721 260.957C218.033 258.997 217.635 257.001 217.242 255.055C217.276 256.634 217.074 258.209 216.642 259.731C216.388 260.475 216.023 261.186 215.803 261.943C214.819 265.343 216.915 268.911 216.618 272.432C216.479 274.078 215.817 275.705 216.004 277.327C216.134 278.515 216.7 279.605 217.088 280.736C217.477 281.868 217.678 283.163 217.088 284.22C215.529 287.091 216.695 290.996 218.091 293.941C218.374 294.464 218.621 295.005 218.829 295.559C219.242 296.887 218.897 298.314 219.007 299.698C218.605 299.762 218.194 299.736 217.804 299.622C217.414 299.507 217.056 299.308 216.757 299.038C216.546 298.823 216.373 298.571 216.167 298.346C215.591 297.811 214.909 297.396 214.162 297.126C213.724 296.887 213.224 296.775 212.723 296.803C212.196 296.947 211.721 297.234 211.356 297.631C210.881 298.038 210.378 298.411 209.849 298.748C209.624 298.917 209.361 299.031 209.082 299.08C208.942 299.102 208.798 299.079 208.671 299.016C208.545 298.953 208.442 298.853 208.377 298.73C208.347 298.652 208.329 298.57 208.324 298.487C208.146 297.075 208.051 295.654 208.041 294.231C208.041 291.786 205.038 290.102 204.659 287.685C204.357 285.735 204.918 283.748 204.731 281.784C204.64 280.774 204.352 279.782 204.371 278.772C204.371 278.118 204.525 277.477 204.578 276.827C204.622 276.106 204.61 275.382 204.544 274.662L204.395 272.404C204.251 270.173 204.093 267.896 203.191 265.857C202.122 263.477 201.489 260.932 201.32 258.338C201.224 256.701 201.287 255.065 201.095 253.423C200.922 251.941 200.538 250.468 200.649 248.981C200.74 247.831 201.129 246.718 201.22 245.568C201.407 243.356 200.543 241.205 199.867 239.087C199.191 236.968 198.692 234.621 199.579 232.578C199.706 232.242 199.917 231.943 200.193 231.708C200.533 231.488 200.921 231.348 201.325 231.296C209.556 229.611 217.992 229.087 226.375 229.739C227.742 229.815 229.068 230.218 230.237 230.913Z" fill="#3F3D56" fill-opacity="1.000000" fill-rule="nonzero"/>
		<path id="Vector" d="M210.689 173.757C210.689 177.894 207.248 181.248 203.004 181.248C198.76 181.248 195.319 177.894 195.319 173.757C195.319 169.62 198.76 166.266 203.004 166.266C207.248 166.266 210.689 169.62 210.689 173.757Z" fill="#FBBEBE" fill-opacity="1.000000" fill-rule="evenodd"/>
		<path id="Vector" d="M201.517 183.114C201.628 183.543 201.628 183.991 201.517 184.419C201.396 184.718 201.226 184.996 201.013 185.242C200.27 186.177 199.446 187.05 198.553 187.851C199.008 188.843 199.828 189.632 200.85 190.063C201.866 190.484 202.931 190.781 204.021 190.947C204.565 191.086 205.132 191.124 205.69 191.059C206.205 190.933 206.693 190.717 207.13 190.423L211.399 187.931C212.043 187.591 212.64 187.171 213.174 186.682C213.957 185.898 214.4 184.849 214.411 183.755C214.431 183.559 214.377 183.363 214.258 183.203C214.094 183.064 213.889 182.981 213.673 182.965C212.171 182.642 210.986 181.454 210.315 180.108C209.708 178.727 209.315 177.266 209.149 175.773L204.597 178.111C203.92 178.462 203.249 178.812 202.548 179.116C202.102 179.313 201.2 179.476 200.884 179.874C200.279 180.608 201.359 182.231 201.517 183.114Z" fill="#FBBEBE" fill-opacity="1.000000" fill-rule="nonzero"/>
		<path id="Vector" d="M198.581 186.49C197.933 187.008 197.427 187.675 197.109 188.431C196.811 189.366 197.109 190.353 197.377 191.278C198.636 195.225 199.598 199.255 200.255 203.338C200.658 206.144 200.807 208.991 201.004 211.83C201.407 217.619 201.992 226.849 202.774 232.601C205.652 232.727 208.458 231.909 211.313 231.609C216.647 231.058 222.139 232.32 227.363 231.142C226.097 226.265 224.831 217.937 223.564 213.064C223.004 211.144 222.615 209.181 222.403 207.196C222.293 205.77 222.36 204.339 222.379 202.903C222.422 200.098 222.264 197.292 222.106 194.486C221.924 191.213 221.741 187.94 220.945 184.737C220.89 184.329 220.693 183.951 220.389 183.666C219.909 183.324 219.285 183.446 218.714 183.521C216.967 183.737 215.197 183.329 213.735 182.371C213.102 181.95 212.253 181.435 211.663 181.903C211.411 182.185 211.245 182.53 211.183 182.899C210.922 183.56 210.519 184.16 210.001 184.658C209.483 185.155 208.862 185.539 208.18 185.784C206.813 186.267 205.382 186.553 203.93 186.635C203.486 186.728 203.023 186.677 202.611 186.49C201.93 186.083 201.882 184.62 201.023 184.522C200.27 184.437 199.09 186.018 198.581 186.49Z" fill="#3F3D56" fill-opacity="1.000000" fill-rule="nonzero"/>
		<path id="Vector" d="M209.931 197.909C208.161 196.259 207.384 193.865 206.093 191.83C205.215 190.463 204.092 189.259 202.779 188.277C202.118 187.852 201.513 187.351 200.975 186.785C200.519 186.238 200.174 185.508 199.483 185.298C199.198 185.237 198.901 185.245 198.62 185.321C198.338 185.397 198.08 185.538 197.867 185.733C197.444 186.126 197.043 186.541 196.667 186.977C194.633 189.03 191.06 189.315 189.448 191.69C189.013 192.194 188.717 192.797 188.589 193.444C188.125 196.901 189.042 200.4 191.151 203.217C191.559 203.87 192.186 204.365 192.926 204.62C192.825 205.491 192.944 206.374 193.271 207.191C194.159 210.151 195.251 213.049 196.538 215.865C196.23 216.967 196.015 218.092 195.895 219.228C195.559 222.085 195.871 224.984 195.554 227.845C195.295 230.184 194.595 232.461 194.571 234.803C194.571 235.178 194.605 235.622 194.936 235.813C195.112 235.902 195.309 235.942 195.506 235.93L201.407 236.103C204.832 236.202 208.29 236.3 211.663 235.683C212.112 235.618 212.547 235.484 212.953 235.285C214.095 234.663 214.474 233.26 214.656 232.012C214.894 230.392 214.989 228.756 214.939 227.121C215.654 229.323 216.503 231.6 218.661 232.554C219.803 233.059 221.108 233.022 222.36 232.989C225.059 232.872 227.748 232.602 230.414 232.18C230.578 232.2 230.745 232.182 230.901 232.128C231.057 232.074 231.198 231.985 231.312 231.868C231.426 231.751 231.511 231.61 231.559 231.455C231.607 231.301 231.618 231.137 231.589 230.978L231.618 228.425C231.676 223.24 230.357 218.283 229.843 213.121C229.68 211.493 229.695 209.847 229.287 208.253C229.119 207.584 228.874 206.929 228.726 206.256C228.598 205.597 228.517 204.93 228.486 204.259L228.112 199.116C227.934 196.736 227.68 194.44 227.493 192.064C227.39 189.751 227.046 187.454 226.466 185.209C226.049 183.806 225.181 182.217 223.679 182.044C222.878 181.955 222.101 182.296 221.338 182.534C219.464 183.11 217.452 183.102 215.582 182.511C215.004 182.289 214.402 182.132 213.788 182.044C213.478 182.002 213.164 182.042 212.875 182.159C212.587 182.276 212.336 182.465 212.147 182.708C211.961 183.073 211.874 183.478 211.893 183.886C211.667 188.557 211.25 193.369 209.931 197.909Z" fill="#005AD5" fill-opacity="1.000000" fill-rule="nonzero"/>
		<path id="Vector" d="M202.213 198.05C200.001 195.778 197.732 193.463 194.883 192.018C193.76 191.447 192.484 191.017 191.242 191.232C190 191.448 188.843 192.5 188.901 193.729C188.939 194.492 189.414 195.165 189.563 195.913C189.736 196.755 189.486 197.653 189.755 198.466C189.973 199.002 190.299 199.491 190.714 199.902L194.111 203.825C195.55 205.462 196.989 207.122 198.84 208.253C200.692 209.385 203.09 209.913 205.124 209.109C206.572 208.453 207.775 207.377 208.569 206.027C209.413 204.718 210.008 203.287 210.799 201.936C212.031 199.777 213.657 197.854 215.596 196.264C214.598 196.011 213.346 195.656 212.718 194.861C212.539 194.608 212.387 194.339 212.262 194.057L211.485 192.42C211.221 192.407 210.957 192.447 210.709 192.538C210.461 192.629 210.236 192.768 210.046 192.949C209.713 193.324 209.356 193.679 208.976 194.01C208.3 194.506 207.384 194.641 206.77 195.207C206.532 195.45 206.317 195.713 206.127 195.993C205.663 196.588 205.073 197.079 204.398 197.434C203.723 197.789 202.978 197.999 202.213 198.05Z" fill="#3F3D56" fill-opacity="1.000000" fill-rule="nonzero"/>
		<path id="Vector" d="M215.774 188.272C217.438 185.312 217.362 181.763 217.836 178.42C217.888 177.534 218.207 176.684 218.753 175.974C219.712 174.917 221.405 174.903 222.854 175.039C223.281 175.086 223.813 175.282 223.789 175.698C223.756 175.847 223.681 175.985 223.574 176.096C222.17 177.862 221.344 180 221.204 182.231C221.957 182.741 223.123 181.693 223.847 182.231C224.327 182.624 224.106 183.4 223.818 183.961C223.15 185.261 222.461 186.552 221.751 187.833C221.184 188.962 220.445 190.001 219.559 190.914C218.949 191.485 218.235 191.934 217.616 192.495C216.177 193.809 215.308 195.665 213.821 196.946C213.696 197.079 213.526 197.164 213.342 197.185C213.152 197.172 212.974 197.094 212.838 196.965C212.095 196.376 211.479 195.65 211.025 194.828C210.459 193.809 210.545 193.51 211.437 192.789C213.107 191.503 214.733 190.124 215.774 188.272Z" fill="#FBBEBE" fill-opacity="1.000000" fill-rule="nonzero"/>
		<path id="Vector" d="M199.43 196.039C199.718 196.212 200.073 196.408 200.39 196.263C200.519 196.187 200.629 196.083 200.711 195.959C201.26 195.246 201.717 194.47 202.074 193.649C202.135 193.533 202.169 193.406 202.174 193.275C202.174 192.976 201.901 192.756 201.647 192.583C200.284 191.737 198.82 191.058 197.286 190.563C196.02 190.096 194.696 189.689 193.353 189.806C192.848 189.839 192.355 189.971 191.904 190.194C191.453 190.418 191.054 190.728 190.729 191.106C189.769 192.307 191.376 192.672 192.384 193.107C194.715 194.14 197.238 194.739 199.43 196.039Z" fill="#005AD5" fill-opacity="1.000000" fill-rule="nonzero"/>
		<g opacity="0.100000">
			<path id="Vector" d="M197.919 203.988C197.903 204.095 197.913 204.204 197.948 204.306C197.983 204.409 198.042 204.502 198.121 204.577C198.26 203.913 198.078 203.212 198.222 202.543C198.433 201.538 199.435 200.78 199.522 199.77C197.684 199.42 197.934 202.903 197.919 203.988Z" fill="#000000" fill-opacity="1.000000" fill-rule="nonzero"/>
		</g>
		<g opacity="0.200000">
			<path id="Vector" d="M282.5 167.421L282.5 172.027L262.995 173.182L262.405 168.572L282.5 167.421Z" fill="#000000" fill-opacity="1.000000" fill-rule="nonzero"/>
		</g>
		<path id="Vector" d="M196.087 174.87C197.305 173.902 196.6 171.873 197.425 170.573C197.905 169.862 198.716 169.488 199.512 169.17C200.473 168.732 201.503 168.454 202.558 168.347C203.087 168.298 203.62 168.365 204.118 168.544C204.616 168.723 205.067 169.009 205.436 169.381C205.748 169.727 205.959 170.147 206.252 170.508C206.614 170.928 207.086 171.244 207.618 171.424C208.151 171.603 208.723 171.639 209.274 171.527C209.912 171.387 210.574 170.914 210.531 170.278C210.458 169.892 210.256 169.539 209.955 169.278L208.583 167.795C207.024 166.112 205.292 164.326 203.004 163.905C201.412 163.61 199.781 164.027 198.246 164.527C197.627 164.728 196.931 165.027 196.758 165.64C196.643 166.061 196.816 166.519 196.715 166.944C196.519 167.791 195.406 168.076 194.888 168.787C194.37 169.498 194.528 170.339 194.379 171.125C194.23 171.91 193.799 172.677 193.746 173.491C193.712 173.982 193.967 174.894 194.533 175.071C195.099 175.249 195.737 174.286 196.087 174.87Z" fill="#3F3D56" fill-opacity="1.000000" fill-rule="nonzero"/>
		<path id="Vector" d="M210.065 169.605C209.661 167.548 208.789 165.605 207.513 163.919C206.379 162.344 204.801 161.123 202.971 160.403C202.056 160.054 201.071 159.912 200.092 159.988C199.112 160.063 198.163 160.354 197.315 160.838C196.056 161.714 195.077 162.918 194.49 164.312C193.247 166.921 192.787 170.11 194.231 172.617C194.806 171.934 195.794 172.243 196.667 171.995C197.761 171.691 198.687 170.98 199.728 170.536C202.87 169.185 206.708 170.279 210.065 169.605Z" fill="#FED253" fill-opacity="1.000000" fill-rule="nonzero"/>
		<g opacity="0.100000">
			<path id="Vector" d="M194.964 169.46C194.854 168.618 194.782 167.641 195.396 167.043C195.427 167.006 195.465 166.977 195.51 166.957C195.554 166.938 195.602 166.929 195.65 166.93C195.693 166.944 195.733 166.966 195.766 166.995C195.8 167.024 195.828 167.059 195.847 167.099C196.201 167.644 196.503 168.22 196.749 168.819C196.391 168.739 196.017 168.765 195.675 168.894C195.333 169.024 195.039 169.25 194.83 169.544L194.964 169.46Z" fill="#000000" fill-opacity="1.000000" fill-rule="nonzero"/>
		</g>
		<g opacity="0.100000">
			<path id="Vector" d="M206.175 167.084L206.002 165.415C205.974 165.277 205.986 165.135 206.036 165.004C206.108 164.893 206.22 164.813 206.349 164.779C206.479 164.744 206.616 164.758 206.736 164.816C206.972 164.944 207.167 165.134 207.297 165.364C207.697 165.961 208.028 166.599 208.286 167.267C207.513 167.122 206.718 167.131 205.95 167.295L206.175 167.084Z" fill="#000000" fill-opacity="1.000000" fill-rule="nonzero"/>
		</g>
		<g opacity="0.100000">
			<path id="Vector" d="M210.468 234.836L210.468 238.652L207.163 238.867L189.779 238.867L189.779 234.836L210.468 234.836Z" fill="#000000" fill-opacity="1.000000" fill-rule="nonzero"/>
		</g>
		<path id="Vector" d="M210.468 234.836L210.468 238.867L189.779 238.867L134.815 171.751L134.815 168.581L146.337 168.581L210.468 234.836Z" fill="#F1C0C0" fill-opacity="1.000000" fill-rule="nonzero"/>
		<g opacity="0.100000">
			<path id="Vector" d="M210.468 234.836L210.468 238.867L189.779 238.867L134.815 171.751L134.815 168.581L146.337 168.581L210.468 234.836Z" fill="#000000" fill-opacity="1.000000" fill-rule="nonzero"/>
		</g>
		<g opacity="0.100000">
			<path id="Vector" d="M210.468 234.836L210.468 238.867L189.779 238.867L134.815 171.751L134.815 168.581L190.076 234.836L210.468 234.836Z" fill="#000000" fill-opacity="1.000000" fill-rule="nonzero"/>
		</g>
		<path id="Vector" d="M142.02 302.106C142.056 302.296 142.052 302.491 142.007 302.679C141.963 302.867 141.879 303.044 141.761 303.199C141.643 303.354 141.493 303.483 141.322 303.579C141.15 303.675 140.96 303.736 140.763 303.757C139.43 304.197 138.014 304.631 137.069 305.627C136.124 306.623 135.937 308.47 137.069 309.279C137.648 309.62 138.312 309.796 138.988 309.789C141.161 309.934 143.425 309.906 145.397 309.008C146.807 308.372 148.136 307.287 149.686 307.386C150.487 307.432 151.341 307.797 152.055 307.442C152.77 307.086 152.971 306.095 152.976 305.267C152.994 303.54 152.727 301.82 152.185 300.175C152.113 299.951 149.062 299.778 148.697 299.708L144.999 299.24C144.298 299.151 142.787 298.637 142.236 299.207C141.684 299.778 142.02 301.428 142.02 302.106Z" fill="#005AD5" fill-opacity="1.000000" fill-rule="nonzero"/>
		<path id="Vector" d="M164.091 290.434C164.248 291.277 164.502 292.099 164.849 292.885C165.362 294.157 166.019 295.508 167.276 296.125C168.418 296.682 169.819 296.481 170.979 295.952C171.464 295.757 171.889 295.442 172.212 295.04C172.587 294.404 172.754 293.672 172.692 292.941C172.692 291.131 172.582 289.261 171.733 287.652C171.003 286.249 169.732 285.043 169.713 283.49L165.343 284.313C165.109 284.335 164.886 284.421 164.7 284.561C164.562 284.703 164.466 284.88 164.422 285.071C163.955 286.821 163.843 288.643 164.091 290.434Z" fill="#005AD5" fill-opacity="1.000000" fill-rule="nonzero"/>
		<path id="Vector" d="M111.904 246.012C111.722 247.517 111.799 249.131 112.605 250.431C113.411 251.731 115.109 252.591 116.577 252.072C116.652 252.053 116.723 252.02 116.784 251.974C116.846 251.928 116.898 251.871 116.937 251.805C116.976 251.647 116.953 251.481 116.874 251.338C116.226 249.652 116.279 247.786 117.023 246.138C117.119 245.923 117.325 245.67 117.551 245.755C117.645 245.801 117.721 245.877 117.766 245.97C117.999 246.361 118.115 246.808 118.102 247.26C118.034 247.67 118.022 248.086 118.064 248.499C118.155 248.902 118.596 249.28 118.98 249.107C119.091 249.041 119.187 248.953 119.262 248.849C119.337 248.746 119.39 248.628 119.417 248.504C120.486 245.488 120.002 242.191 119.513 239.035C119.517 238.963 119.504 238.89 119.477 238.823C119.449 238.755 119.406 238.695 119.352 238.645C119.297 238.596 119.232 238.559 119.161 238.536C119.091 238.514 119.016 238.507 118.942 238.516C116.677 238.296 115.44 237.768 114.145 239.821C113.032 241.551 111.904 243.931 111.904 246.012Z" fill="#005AD5" fill-opacity="1.000000" fill-rule="nonzero"/>
		<path id="Vector" d="M138.374 238.339C137.703 241.06 137.026 243.814 136.983 246.611C136.995 248.352 137.129 250.091 137.386 251.815L137.89 255.864C138.062 257.23 138.23 258.591 138.475 259.942C138.631 260.638 138.716 261.348 138.729 262.06C138.682 262.763 138.568 263.459 138.389 264.141C138.087 265.573 137.918 267.028 137.885 268.49C137.832 270.828 138.13 273.166 138.317 275.504C138.69 280.163 138.634 284.845 138.149 289.495C137.955 290.75 138.234 292.03 138.935 293.1C139.22 293.437 139.454 293.812 139.631 294.213C139.991 295.284 139.151 296.354 138.935 297.453C138.797 298.31 139.014 299.185 139.537 299.887C140.061 300.588 140.848 301.058 141.727 301.194C145.565 301.638 149.508 301.437 152.967 303.149C153.331 302.111 152.535 300.932 152.9 299.876C153.13 299.221 153.763 298.795 154.195 298.244C154.775 297.403 155.064 296.403 155.02 295.391C155.037 294.07 154.796 292.758 154.31 291.524C153.902 290.495 153.317 289.481 153.35 288.377C153.35 287.835 153.547 287.264 153.322 286.764C153.167 286.476 152.957 286.221 152.703 286.011C151.269 284.48 150.388 282.534 150.194 280.47C150.007 278.421 150.075 276.358 150.395 274.326C150.63 272.39 150.947 270.346 152.209 268.836C151.624 264.256 151.968 259.609 153.221 255.158C153.346 254.747 153.542 254.27 153.974 254.172C154.146 254.155 154.319 254.178 154.479 254.24C154.639 254.302 154.782 254.4 154.895 254.527C155.648 255.215 156.008 256.211 156.334 257.164C156.694 258.198 157.059 259.301 156.785 260.358C156.67 260.826 156.44 261.237 156.305 261.686C156.014 262.588 156.065 263.563 156.449 264.431C156.637 264.748 156.754 265.1 156.795 265.464C156.75 265.777 156.653 266.081 156.507 266.362C156.329 266.916 156.272 267.499 156.341 268.075C156.41 268.651 156.602 269.207 156.905 269.706C157.516 270.699 158.271 271.601 159.145 272.385C158.727 274.18 158.835 276.053 159.457 277.791C159.502 277.869 159.53 277.955 159.541 278.044C159.552 278.133 159.544 278.223 159.519 278.31C159.433 278.487 159.212 278.553 159.04 278.679C158.56 279.062 158.857 279.787 159.179 280.288C160.06 281.661 161.032 282.976 162.091 284.225C163.05 285.342 162.964 287.498 164.393 287.9C164.994 288.027 165.615 288.027 166.216 287.9C167.626 287.69 169.2 287.292 169.891 286.076C170.174 285.576 170.289 284.968 170.73 284.594C171.171 284.22 171.742 284.155 171.987 283.706C172.231 283.257 171.958 282.668 172.04 282.149C172.121 281.63 172.586 281.213 172.735 280.666C173.09 279.404 171.579 278.366 171.373 277.075C171.075 275.205 173.493 273.802 173.392 271.931C173.181 267.868 173.047 263.786 172.831 259.722C172.56 256.082 172.522 252.429 172.716 248.785C172.884 246.517 173.196 244.142 172.342 242.033C171.114 239.059 167.727 237.389 164.451 237.071C161.174 236.753 157.908 237.511 154.66 238.007C149.27 238.816 143.794 238.928 138.374 238.339Z" fill="#3F3D56" fill-opacity="1.000000" fill-rule="nonzero"/>
		<path id="Vector" d="M155.797 186.154C155.797 190.291 152.356 193.645 148.112 193.645C143.868 193.645 140.427 190.291 140.427 186.154C140.427 182.017 143.868 178.663 148.112 178.663C152.356 178.663 155.797 182.017 155.797 186.154Z" fill="#FBBEBE" fill-opacity="1.000000" fill-rule="evenodd"/>
		<path id="Vector" d="M144.985 195.043C144.723 195.636 144.285 196.137 143.725 196.482C143.166 196.827 142.513 196.998 141.852 196.974C141.574 198.096 142.241 199.228 143.003 200.112C144.587 201.908 146.634 203.261 148.932 204.029C151.231 204.798 153.698 204.955 156.08 204.484C157.007 204.322 157.886 203.965 158.656 203.437C159.694 202.592 160.391 201.415 160.623 200.117C160.844 198.827 160.906 197.516 160.81 196.212C160.837 195.955 160.761 195.697 160.599 195.492C160.407 195.347 160.17 195.271 159.927 195.277C158.306 195.137 156.612 195.076 155.188 194.3C153.763 193.523 152.751 191.77 153.437 190.33C153.327 190.554 150.525 190.662 150.156 190.708C149 190.867 147.844 191.045 146.692 191.251C146.139 191.28 145.592 191.381 145.066 191.55C144.371 191.901 144.63 191.728 144.793 192.364C145.037 193.336 145.397 194.033 144.985 195.043Z" fill="#FBBEBE" fill-opacity="1.000000" fill-rule="nonzero"/>
		<path id="Vector" d="M150.832 199.598C149.797 199.609 148.764 199.498 147.757 199.266C146.74 199.034 145.844 198.451 145.234 197.624C144.879 197.101 144.649 196.441 144.083 196.147C143.157 195.679 142.102 196.469 141.363 197.194C140.69 197.909 139.911 198.521 139.051 199.008C138.024 199.537 136.825 199.724 135.856 200.346C135.099 200.903 134.449 201.587 133.937 202.366L127.14 211.391C124.41 215.019 122.036 218.914 119.604 222.744C117.498 226.059 116.394 229.875 114.807 233.452C114.681 233.671 114.629 233.923 114.658 234.172C114.715 234.416 115.018 234.612 115.229 234.472C114.514 235.164 115.142 236.342 114.974 237.315C114.784 237.995 114.385 238.603 113.833 239.059C114.889 238.925 115.96 238.974 116.999 239.204C118.072 239.5 119.084 239.975 119.992 240.607C120.573 240.518 120.52 239.512 120.952 239.138C121.211 238.919 121.594 238.947 121.935 238.881C123.216 238.638 123.724 237.137 124.708 236.291C125.528 235.585 126.689 235.355 127.557 234.691C128.967 233.611 129.27 231.689 130.008 230.095C130.637 228.743 131.625 227.565 132.176 226.181C132.536 225.283 132.709 224.311 133.222 223.483C134.043 222.146 135.587 221.435 137.06 220.794C137.99 220.387 138.979 219.967 139.981 220.032C139.928 222.206 139.645 224.348 140.13 226.471C140.298 227.219 140.533 227.949 140.734 228.692C141.651 232.04 141.866 235.528 141.91 238.979C144.114 238.488 146.365 238.224 148.625 238.194C150.405 238.142 152.18 238.367 153.96 238.334C156.07 238.297 158.157 237.899 160.268 237.759C162.378 237.619 164.585 237.759 166.451 238.694C166.3 235.731 166.385 232.76 166.705 229.81L167.214 225.162C167.329 223.811 167.542 222.47 167.852 221.15C168.13 220.083 168.533 219.055 168.84 217.993C169.919 214.252 169.723 210.259 169.516 206.364C169.411 204.362 168.619 202.394 167.689 200.612C167.352 199.951 166.967 199.313 166.537 198.704C165.413 197.194 163.914 195.986 162.181 195.193C160.448 194.4 158.537 194.047 156.627 194.169C156.383 194.176 156.142 194.227 155.917 194.318C155.512 194.571 155.196 194.938 155.01 195.37C154.018 197.109 152.578 198.566 150.832 199.598Z" fill="#3F3D56" fill-opacity="1.000000" fill-rule="nonzero"/>
		<path id="Vector" d="M141.353 188.637C141.569 188.169 142.149 187.996 142.504 187.622C143.186 186.912 142.879 185.775 142.984 184.817C143.157 183.414 144.351 182.24 145.718 181.74C147.113 181.304 148.596 181.212 150.036 181.473C150.729 181.523 151.398 181.74 151.983 182.105C152.233 182.282 152.463 182.511 152.698 182.675C153.127 182.928 153.639 183.007 154.127 182.896C154.614 182.785 155.038 182.493 155.308 182.081C153.609 180.089 151.729 177.985 149.148 177.372C148.263 177.196 147.361 177.113 146.457 177.125C145.263 177.101 144.03 177.083 142.927 177.527C141.425 178.13 140.37 179.519 139.828 181.015C139.354 182.532 139.1 184.106 139.075 185.691C138.976 186.749 138.976 187.813 139.075 188.871C139.26 190.315 139.811 191.692 140.677 192.878C140.794 193.062 140.96 193.213 141.156 193.313C143.344 194.248 141.176 189.025 141.353 188.637Z" fill="#3F3D56" fill-opacity="1.000000" fill-rule="nonzero"/>
		<path id="Vector" d="M155.058 180.926C154.794 178.723 153.183 176.904 151.47 175.441C150.09 174.172 148.446 173.207 146.649 172.612C144.841 172.093 142.759 172.205 141.209 173.257C139.962 174.103 139.171 175.45 138.561 176.806C137.761 178.406 137.365 180.17 137.405 181.95C137.525 183.717 138.408 185.508 139.981 186.401C140.547 185.588 141.531 185.167 142.476 184.835C146.594 183.311 150.795 182.006 155.058 180.926Z" fill="#FED253" fill-opacity="1.000000" fill-rule="nonzero"/>
		<g opacity="0.100000">
			<path id="Vector" d="M140.509 180.01C140.662 180.01 140.763 180.164 140.84 180.29C141.23 180.883 141.566 181.509 141.842 182.161C141.281 182.277 140.317 182.408 140.039 181.927C139.89 181.684 140.068 179.986 140.509 180.01Z" fill="#000000" fill-opacity="1.000000" fill-rule="nonzero"/>
		</g>
		<g opacity="0.100000">
			<path id="Vector" d="M151.441 178.953C151.326 179.06 151.192 178.84 151.192 178.681L151.192 176.867C151.189 176.817 151.2 176.767 151.225 176.722C151.245 176.7 151.27 176.682 151.297 176.669C151.324 176.656 151.353 176.649 151.384 176.648C151.772 176.605 152.094 176.928 152.343 177.237C152.722 177.737 153.051 178.271 153.326 178.831L151.297 178.77L151.441 178.953Z" fill="#000000" fill-opacity="1.000000" fill-rule="nonzero"/>
		</g>
		<path id="Vector" d="M176.764 208.997C177.206 208.588 177.677 208.211 178.175 207.87C179.504 207.005 181.111 206.663 182.602 206.111C184.094 205.56 185.61 204.667 186.191 203.217C186.481 202.31 186.576 201.355 186.469 200.411C186.483 200.016 186.411 199.622 186.258 199.256C186.075 198.933 185.815 198.657 185.5 198.452C183.475 196.993 180.76 196.876 178.247 197.026C172.705 197.361 167.273 198.683 162.22 200.926C161.953 201.012 161.719 201.175 161.548 201.393C161.45 201.596 161.406 201.819 161.419 202.043C161.33 203.422 161.514 204.805 161.961 206.116C162.623 207.781 163.985 209.123 164.556 210.82C164.815 211.582 164.902 212.391 165.127 213.158C165.312 213.95 165.792 214.647 166.475 215.113C168.37 216.216 170.159 214.734 171.473 213.584L176.764 208.997Z" fill="#3F3D56" fill-opacity="1.000000" fill-rule="nonzero"/>
		<path id="Vector" d="M151.95 215.473L149.518 210.301C149.161 209.584 148.853 208.845 148.597 208.089C148.318 207.187 148.184 206.252 147.925 205.344C147.071 202.324 144.917 199.808 143.867 196.848C143.8 196.581 143.665 196.334 143.473 196.133C143.32 196.027 143.145 195.955 142.96 195.923C142.775 195.891 142.585 195.898 142.404 195.945C140.936 196.193 139.789 197.283 138.446 197.9C137.823 198.181 137.151 198.368 136.527 198.69C136.216 198.834 135.939 199.042 135.718 199.299C135.496 199.557 135.333 199.858 135.242 200.182C135.093 200.897 135.458 201.585 135.765 202.282C137.069 205.153 137.367 208.36 137.424 211.503C137.468 213.616 137.357 215.884 136.076 217.582C133.616 220.855 135.189 225.662 136.11 229.622C136.22 230.09 136.35 230.595 136.427 231.091C136.508 231.711 136.545 232.336 136.537 232.961C136.537 235.061 136.417 237.226 135.515 239.129C136.406 239.591 137.387 239.862 138.393 239.924C141.179 240.27 143.975 240.513 146.783 240.653C147.663 240.734 148.55 240.69 149.417 240.522C150.446 240.251 151.353 239.653 151.995 238.824C152.637 237.994 152.977 236.979 152.962 235.94C153.115 237.235 153.398 238.643 154.363 239.54C155.327 240.438 156.732 240.574 158.042 240.644C161.738 240.835 165.444 240.733 169.123 240.34C169.358 240.33 169.589 240.277 169.804 240.186C170.514 239.84 170.552 238.886 170.495 238.119C170.389 236.683 170.279 235.248 170.101 233.822C169.951 232.912 169.874 231.993 169.871 231.072C169.944 230.125 170.105 229.186 170.351 228.266C170.994 225.349 171.502 222.37 171.286 219.382C171.201 218.654 171.171 217.921 171.195 217.189C171.32 215.538 172.212 213.967 172.044 212.326C171.565 207.5 171.176 202.548 169.794 197.891C169.545 197.058 169.228 196.165 168.485 195.688C167.526 195.062 166.178 195.389 165.079 194.992C164.564 194.758 164.073 194.474 163.616 194.145C162.622 193.539 161.482 193.197 160.311 193.154C159.428 193.121 158.445 193.313 157.912 194.005C157.666 194.395 157.503 194.829 157.433 195.281C156.737 198.134 155.922 200.954 155.106 203.773L154.324 206.476L152.228 213.733C152.022 214.505 152.161 214.743 151.95 215.473Z" fill="#005AD5" fill-opacity="1.000000" fill-rule="nonzero"/>
		<path id="Vector" d="M164.216 187.159L210.617 234.691L210.617 238.722L189.928 238.722L155.058 194.36L164.216 187.159Z" fill="#F1C0C0" fill-opacity="1.000000" fill-rule="nonzero"/>
		<g opacity="0.100000">
			<path id="Vector" d="M164.216 187.159L210.617 234.691L210.617 238.722L189.928 238.722L155.058 194.36L164.216 187.159Z" fill="#000000" fill-opacity="1.000000" fill-rule="nonzero"/>
		</g>
		<g opacity="0.100000">
			<path id="Vector" d="M155.797 193.733L155.946 193.785L190.225 234.691L210.617 234.691L210.617 238.722L189.928 238.722L155.058 194.36L155.797 193.733Z" fill="#000000" fill-opacity="1.000000" fill-rule="nonzero"/>
		</g>
		<path id="Vector" d="M161.136 194.734C159.457 195.449 157.591 196.366 157.087 198.087C156.988 198.389 156.966 198.71 157.025 199.022C157.148 199.389 157.382 199.711 157.696 199.945C158.01 200.18 158.39 200.316 158.785 200.336C159.575 200.354 160.361 200.214 161.093 199.924L170.999 196.735C171.267 196.651 171.574 196.525 171.641 196.268C171.659 196.106 171.625 195.943 171.545 195.8C171.238 195.071 170.936 193.579 170.293 193.069C169.766 192.658 168.72 192.803 168.082 192.812C165.626 192.831 163.319 193.799 161.136 194.734Z" fill="#005AD5" fill-opacity="1.000000" fill-rule="nonzero"/>
		<path id="Vector" d="M169.967 197.115C171.636 197.11 173.295 197.361 174.884 197.858C176.48 198.363 177.894 199.305 178.957 200.57C179.266 200.924 179.487 201.344 179.6 201.795C179.695 202.263 181.259 202.543 180.914 202.861C181.964 202.698 181.715 203.179 182.78 203.17C183.845 203.161 184.996 202.894 185.634 202.067C186.077 201.387 186.275 200.582 186.195 199.78C186.209 199.225 186.101 198.673 185.879 198.162C185.399 197.18 184.296 196.652 183.279 196.198L174.711 192.378C174.214 192.12 173.681 191.936 173.128 191.831C172.663 191.788 172.195 191.799 171.733 191.863L167.852 192.298C168.7 192.833 169.391 193.575 169.857 194.45C170.322 195.325 170.545 196.303 170.504 197.288L169.967 197.115Z" fill="#3F3D56" fill-opacity="1.000000" fill-rule="nonzero"/>
	</g>
</svg>
