<svg width="613.000000" height="341.000000" viewBox="0 0 613 341" fill="none" xmlns="http://www.w3.org/2000/svg" xmlns:xlink="http://www.w3.org/1999/xlink">
	<desc>
			Created with Pixso.
	</desc>
	<defs>
		<clipPath id="clip1_297">
			<rect id="undraw_House_searching_re_stk8 1" width="613.000000" height="341.000000" fill="white" fill-opacity="0"/>
		</clipPath>
	</defs>
	<rect id="undraw_House_searching_re_stk8 1" width="613.000000" height="341.000000" fill="#FFFFFF" fill-opacity="0"/>
	<g clip-path="url(#clip1_297)">
		<path id="Vector" d="M220.46 245.263C220.46 263.839 205.401 278.898 186.825 278.898C168.249 278.898 153.19 263.839 153.19 245.263C153.19 226.687 168.249 211.628 186.825 211.628C205.401 211.628 220.46 226.687 220.46 245.263Z" fill="#E4E4E4" fill-opacity="1.000000" fill-rule="evenodd"/>
		<g opacity="0.200000">
			<path id="Vector" d="M161.99 222.798C158.853 230.136 158.427 238.352 160.789 245.976C163.152 253.6 168.148 260.135 174.885 264.414C181.622 268.693 189.662 270.438 197.566 269.335C205.471 268.233 212.727 264.355 218.036 258.396C216.119 262.88 213.251 266.893 209.629 270.158C206.008 273.423 201.719 275.862 197.062 277.305C192.404 278.749 187.488 279.162 182.655 278.517C177.821 277.872 173.186 276.184 169.07 273.569C164.954 270.955 161.456 267.477 158.817 263.376C156.179 259.275 154.463 254.65 153.79 249.821C153.116 244.991 153.501 240.073 154.917 235.407C156.333 230.741 158.746 226.438 161.99 222.798Z" fill="#000000" fill-opacity="1.000000" fill-rule="nonzero"/>
		</g>
		<path id="Vector" d="M186.918 245.263L187.01 245.263L188.673 340.624L185.162 340.624L186.918 245.263Z" fill="#969697" fill-opacity="1.000000" fill-rule="nonzero"/>
		<path id="Vector" d="M186.586 148.359C186.586 185.812 156.224 216.174 118.772 216.174C81.3188 216.174 50.9574 185.812 50.9574 148.359C50.9574 110.907 81.3188 80.5453 118.772 80.5453C156.224 80.5453 186.586 110.907 186.586 148.359Z" fill="#E4E4E4" fill-opacity="1.000000" fill-rule="evenodd"/>
		<g opacity="0.200000">
			<path id="Vector" d="M68.6999 103.065C62.3744 117.861 61.5163 134.425 66.279 149.796C71.0416 165.167 81.1147 178.344 94.6983 186.972C108.282 195.599 124.491 199.116 140.428 196.893C156.366 194.67 170.994 186.853 181.698 174.837C177.834 183.878 172.051 191.969 164.749 198.553C157.447 205.136 148.801 210.052 139.41 212.963C130.02 215.872 120.109 216.706 110.364 215.405C100.619 214.105 91.2732 210.701 82.9744 205.43C74.6756 200.159 67.622 193.146 62.3023 184.878C56.9827 176.611 53.5241 167.285 52.1663 157.548C50.8085 147.811 51.5839 137.895 54.4388 128.487C57.2936 119.08 62.1597 110.405 68.6999 103.065Z" fill="#000000" fill-opacity="1.000000" fill-rule="nonzero"/>
		</g>
		<path id="Vector" d="M118.958 148.359L119.145 148.359L122.498 340.624L115.419 340.624L118.958 148.359Z" fill="#969697" fill-opacity="1.000000" fill-rule="nonzero"/>
		<path id="Vector" d="M255.042 241.109L565.872 241.109L565.872 333.252L255.042 333.252L255.042 241.109Z" fill="#F0F0F0" fill-opacity="1.000000" fill-rule="evenodd"/>
		<path id="Vector" d="M392.335 260.152L428.579 260.152L428.579 333.252L392.335 333.252L392.335 260.152Z" fill="#CACACA" fill-opacity="1.000000" fill-rule="evenodd"/>
		<path id="Vector" d="M273.163 132.379L547.751 132.379L547.751 217.151L273.163 217.151L273.163 132.379Z" fill="#F0F0F0" fill-opacity="1.000000" fill-rule="evenodd"/>
		<path id="Vector" d="M575.589 137.601L245.325 137.601C244.773 137.601 244.235 137.436 243.778 137.127C243.321 136.819 242.967 136.381 242.761 135.869C242.555 135.358 242.506 134.796 242.622 134.257C242.738 133.718 243.012 133.226 243.409 132.844L333.671 46.0837L333.671 8.29297C333.672 7.56006 333.963 6.85742 334.481 6.33923C334.999 5.82092 335.702 5.52942 336.435 5.52856L354.249 5.52856C354.982 5.52942 355.685 5.82092 356.203 6.33911C356.721 6.85742 357.013 7.56006 357.014 8.29297L357.014 23.6466L363.831 17.0934C374.988 6.36963 389.789 0.265747 405.262 0.00842285C420.734 -0.248779 435.731 5.3595 447.237 15.7064L577.437 132.781C577.853 133.155 578.146 133.646 578.276 134.19C578.407 134.733 578.37 135.304 578.17 135.826C577.97 136.348 577.616 136.797 577.155 137.114C576.694 137.431 576.148 137.601 575.589 137.601L575.589 137.601Z" fill="#CACACA" fill-opacity="1.000000" fill-rule="nonzero"/>
		<path id="Vector" d="M345.649 153.88C347.948 153.88 350.225 154.332 352.349 155.212C354.473 156.092 356.403 157.382 358.029 159.007C359.654 160.633 360.944 162.563 361.824 164.687C362.704 166.811 363.156 169.088 363.156 171.387L363.156 195.037L328.142 195.037L328.142 171.387C328.142 169.088 328.595 166.811 329.475 164.687C330.354 162.563 331.644 160.633 333.27 159.007C334.895 157.382 336.825 156.092 338.949 155.212C341.074 154.332 343.35 153.88 345.649 153.88Z" fill="#FFFFFF" fill-opacity="1.000000" fill-rule="nonzero"/>
		<path id="Vector" d="M410.457 154.187C415.1 154.187 419.553 156.031 422.836 159.315C426.12 162.598 427.964 167.051 427.964 171.694L427.964 195.344L392.95 195.344L392.95 171.694C392.95 167.051 394.794 162.598 398.077 159.315C401.361 156.031 405.814 154.187 410.457 154.187Z" fill="#FFFFFF" fill-opacity="1.000000" fill-rule="nonzero"/>
		<path id="Vector" d="M475.264 154.494C479.908 154.494 484.361 156.338 487.644 159.622C490.927 162.905 492.772 167.358 492.772 172.001L492.772 195.651L457.757 195.651L457.757 172.001C457.757 167.358 459.602 162.905 462.885 159.622C466.168 156.338 470.621 154.494 475.264 154.494Z" fill="#FFFFFF" fill-opacity="1.000000" fill-rule="nonzero"/>
		<path id="Vector" d="M501.065 259.23C505.708 259.23 510.161 261.075 513.444 264.358C516.727 267.641 518.572 272.094 518.572 276.737L518.572 300.388L483.557 300.388L483.557 276.737C483.557 272.094 485.402 267.641 488.685 264.358C491.968 261.075 496.421 259.23 501.065 259.23Z" fill="#FFFFFF" fill-opacity="1.000000" fill-rule="nonzero"/>
		<path id="Vector" d="M327.835 259.23C332.478 259.23 336.931 261.075 340.215 264.358C343.498 267.641 345.342 272.094 345.342 276.737L345.342 300.388L310.328 300.388L310.328 276.737C310.328 274.438 310.781 272.162 311.66 270.038C312.54 267.914 313.83 265.984 315.456 264.358C317.081 262.732 319.011 261.443 321.135 260.563C323.259 259.683 325.536 259.23 327.835 259.23Z" fill="#FFFFFF" fill-opacity="1.000000" fill-rule="nonzero"/>
		<path id="Vector" d="M611.283 242.547L552.975 216.747C552.662 216.609 552.323 216.537 551.981 216.537L274.093 216.537C273.776 216.537 273.462 216.599 273.168 216.718L209.699 242.518C209.171 242.733 208.734 243.124 208.463 243.625C208.192 244.127 208.104 244.707 208.213 245.266C208.322 245.825 208.623 246.329 209.063 246.691C209.502 247.053 210.055 247.252 210.624 247.252L227.091 247.252L227.091 332.024L225.249 332.024L225.249 340.624L595.665 340.624L595.665 332.024L592.594 332.024L592.594 247.251L610.289 247.251C610.853 247.251 611.399 247.058 611.837 246.703C612.274 246.348 612.577 245.854 612.693 245.302C612.81 244.751 612.733 244.177 612.477 243.675C612.22 243.173 611.799 242.775 611.283 242.547ZM587.68 332.024L232.006 332.024L232.006 247.251L587.68 247.251L587.68 332.024Z" fill="#CACACA" fill-opacity="1.000000" fill-rule="nonzero"/>
		<path id="Vector" d="M322.614 191.658L367.457 191.658L367.457 199.03L322.614 199.03L322.614 191.658Z" fill="#CACACA" fill-opacity="1.000000" fill-rule="evenodd"/>
		<path id="Vector" d="M388.343 191.658L433.186 191.658L433.186 199.03L388.343 199.03L388.343 191.658Z" fill="#CACACA" fill-opacity="1.000000" fill-rule="evenodd"/>
		<path id="Vector" d="M454.072 191.658L498.915 191.658L498.915 199.03L454.072 199.03L454.072 191.658Z" fill="#CACACA" fill-opacity="1.000000" fill-rule="evenodd"/>
		<path id="Vector" d="M478.643 297.931L523.486 297.931L523.486 305.302L478.643 305.302L478.643 297.931Z" fill="#CACACA" fill-opacity="1.000000" fill-rule="evenodd"/>
		<path id="Vector" d="M304.799 297.931L349.642 297.931L349.642 305.302L304.799 305.302L304.799 297.931Z" fill="#CACACA" fill-opacity="1.000000" fill-rule="evenodd"/>
		<path id="Vector" d="M593.346 340.901L0.653465 340.901C0.480156 340.901 0.313944 340.832 0.191395 340.709C0.0688467 340.587 0 340.421 0 340.247C0 340.074 0.0688467 339.908 0.191395 339.785C0.313944 339.663 0.480156 339.594 0.653465 339.594L593.346 339.594C593.52 339.594 593.686 339.663 593.809 339.785C593.931 339.908 594 340.074 594 340.247C594 340.421 593.931 340.587 593.809 340.709C593.686 340.832 593.52 340.901 593.346 340.901Z" fill="#969697" fill-opacity="1.000000" fill-rule="nonzero"/>
		<path id="Vector" d="M511.776 131.115C511.776 131.597 511.768 132.087 511.761 132.568C511.753 133.148 511.738 133.72 511.716 134.3C511.693 134.804 511.67 135.301 511.641 135.798C511.55 137.461 511.407 139.117 511.211 140.781C511.166 141.203 511.114 141.617 511.053 142.038C511.008 142.362 510.963 142.693 510.91 143.024C510.858 143.393 510.805 143.762 510.745 144.131C510.624 144.914 510.489 145.697 510.338 146.479C510.263 146.871 510.188 147.262 510.105 147.654C509.947 148.429 509.773 149.212 509.593 149.987C509.578 150.047 509.563 150.115 509.548 150.175C509.457 150.559 509.367 150.936 509.269 151.32C509.239 151.432 509.217 151.538 509.179 151.651C509.111 151.937 509.036 152.223 508.961 152.509C508.855 152.908 508.75 153.299 508.637 153.698C508.456 154.316 508.276 154.925 508.087 155.543C508.064 155.607 508.044 155.672 508.027 155.738C507.666 156.905 507.282 158.057 506.86 159.201C506.642 159.803 506.409 160.413 506.175 161.015C505.942 161.617 505.701 162.22 505.453 162.814C505.212 163.394 504.963 163.974 504.715 164.546C504.655 164.681 504.595 164.817 504.527 164.952C504.263 165.547 503.992 166.126 503.714 166.706C503.706 166.714 503.706 166.729 503.699 166.736C503.481 167.203 503.247 167.67 503.014 168.129C503.014 168.143 503.008 168.156 502.999 168.166C502.773 168.618 502.54 169.07 502.299 169.514L501.915 170.244L501.87 170.327C501.388 171.223 500.891 172.111 500.364 172.992C500.251 173.187 500.138 173.383 500.026 173.571C499.912 173.767 499.792 173.963 499.672 174.151C499.596 174.286 499.514 174.422 499.423 174.557C499.265 174.813 499.107 175.077 498.941 175.333C498.911 175.385 498.874 175.438 498.844 175.491C498.557 175.935 498.272 176.371 497.985 176.816C497.632 177.35 497.27 177.877 496.901 178.404L488.726 191.487L488.373 191.193L488.275 191.103L488.267 191.103L487.943 190.832L487.055 190.079C486.784 190.343 486.521 190.606 486.25 190.862C486.144 190.967 486.032 191.065 485.926 191.171C485.843 191.246 485.768 191.321 485.685 191.396C471.552 205.198 452.752 213.19 433.007 213.791L432.985 213.791C418.037 214.201 403.241 210.709 390.055 203.659C389.761 203.508 389.475 203.358 389.189 203.185C387.473 202.251 385.794 201.265 384.146 200.211C384.138 200.204 384.13 200.204 384.123 200.196C382.211 198.841 380.344 197.396 378.522 195.86C368.75 187.623 361.018 177.233 355.933 165.506C350.849 153.779 348.55 141.034 349.218 128.27C349.24 127.766 349.27 127.269 349.308 126.764C349.428 124.943 349.614 123.129 349.865 121.322C349.933 120.818 350.008 120.313 350.083 119.816L511.008 119.816C511.324 122.12 511.542 124.436 511.663 126.764C511.738 128.217 511.776 129.663 511.776 131.115Z" fill="#F0F0F0" fill-opacity="1.000000" fill-rule="nonzero"/>
		<path id="Vector" d="M511.008 119.817C508.111 100.55 498.396 82.9628 483.631 70.2516C468.865 57.5404 450.029 50.5494 430.545 50.5494C411.062 50.5494 392.226 57.5404 377.46 70.2516C362.695 82.9628 352.98 100.55 350.083 119.817C350.008 120.314 349.932 120.818 349.865 121.322C349.616 123.129 349.431 124.943 349.308 126.765L511.663 126.765C511.542 124.439 511.324 122.123 511.008 119.817Z" fill="#6200EE" fill-opacity="1.000000" fill-rule="nonzero"/>
		<path id="Vector" d="M435.817 203.656L389.193 203.656L389.193 166.36C390.053 149.315 404.621 147.939 418.31 148.854C420.609 148.854 422.885 149.306 425.009 150.186C427.133 151.066 429.063 152.355 430.689 153.981C432.315 155.606 433.604 157.536 434.484 159.66C435.364 161.784 435.817 164.061 435.817 166.36L435.817 203.656Z" fill="#005AD5" fill-opacity="1.000000" fill-rule="nonzero"/>
		<path id="Vector" d="M389.189 177.139L389.189 177.147C389.189 177.154 389.197 177.154 389.204 177.154L389.189 177.139ZM370.438 119.817C370.408 120.005 370.37 120.193 370.34 120.381C370.37 120.193 370.408 120.005 370.445 119.817L370.438 119.817ZM369.504 126.765C369.482 127.051 369.459 127.337 369.444 127.623C369.459 127.337 369.482 127.051 369.512 126.765C369.511 126.712 369.513 126.659 369.519 126.607C369.512 126.659 369.512 126.712 369.504 126.765ZM389.189 177.147C389.189 177.154 389.197 177.154 389.204 177.154L389.189 177.139L389.189 177.147ZM369.444 127.623C369.459 127.337 369.482 127.051 369.512 126.765C369.511 126.712 369.513 126.659 369.519 126.607C369.512 126.659 369.512 126.712 369.504 126.765C369.482 127.051 369.459 127.337 369.444 127.623ZM602.002 266.1C601.855 265.945 601.699 265.799 601.535 265.664L601.527 265.656L564.251 234.198L563.287 233.385L559.621 230.292L558.703 229.516L553.479 225.105L552.049 223.901L549.09 221.401L547.577 220.122L533.305 208.085L525.122 201.182L524.023 200.257L499.912 179.909C500.281 179.383 500.643 178.856 500.996 178.321C501.282 177.877 501.568 177.44 501.855 176.996C501.885 176.944 501.922 176.891 501.952 176.838C502.118 176.582 502.276 176.319 502.434 176.063C502.524 175.927 502.607 175.792 502.682 175.656C502.803 175.468 502.923 175.272 503.036 175.077C503.149 174.889 503.262 174.693 503.375 174.497C503.902 173.616 504.399 172.728 504.88 171.832L504.926 171.75L505.31 171.019C505.551 170.575 505.784 170.124 506.01 169.672C506.019 169.662 506.025 169.648 506.025 169.634C506.258 169.175 506.492 168.708 506.71 168.242C506.717 168.234 506.717 168.219 506.725 168.212C507.003 167.632 507.274 167.052 507.538 166.458C507.606 166.322 507.666 166.187 507.726 166.051C507.974 165.479 508.223 164.9 508.464 164.32C508.712 163.725 508.953 163.123 509.186 162.521C509.42 161.919 509.653 161.309 509.871 160.707C510.285 159.555 510.674 158.401 511.038 157.244C511.055 157.178 511.075 157.112 511.098 157.048C511.287 156.431 511.467 155.821 511.648 155.204C511.761 154.805 511.866 154.414 511.972 154.015C512.047 153.729 512.122 153.443 512.19 153.156C512.228 153.044 512.25 152.938 512.28 152.825C512.378 152.441 512.468 152.065 512.559 151.681C512.574 151.621 512.589 151.553 512.604 151.493C512.784 150.718 512.958 149.935 513.116 149.159C513.199 148.768 513.274 148.376 513.349 147.985C513.492 147.202 513.635 146.419 513.756 145.636C513.816 145.268 513.869 144.899 513.921 144.53C513.974 144.199 514.019 143.867 514.064 143.544C514.125 143.122 514.177 142.708 514.222 142.287C514.418 140.623 514.561 138.967 514.651 137.303C514.681 136.807 514.704 136.31 514.727 135.805C514.749 135.226 514.764 134.654 514.772 134.074C514.779 133.592 514.787 133.103 514.787 132.621C514.787 131.168 514.749 129.723 514.674 128.27C514.553 125.944 514.335 123.628 514.019 121.322C511.322 101.611 501.622 83.5286 486.691 70.3802C471.76 57.2319 452.596 49.896 432.702 49.7134C412.808 49.5306 393.512 56.5134 378.342 69.3853C363.173 82.2571 353.142 100.158 350.083 119.817C350.008 120.313 349.933 120.818 349.865 121.322C349.617 123.129 349.431 124.943 349.308 126.765C349.27 127.269 349.24 127.766 349.218 128.27C348.55 141.034 350.849 153.78 355.933 165.506C361.018 177.233 368.75 187.623 378.522 195.86C380.344 197.396 382.211 198.841 384.123 200.196C384.13 200.204 384.138 200.204 384.145 200.211C384.785 200.663 385.425 201.107 386.073 201.544C387.104 202.221 388.143 202.884 389.189 203.516C389.272 203.561 389.355 203.614 389.437 203.659C390.341 204.201 391.252 204.72 392.162 205.225L392.17 205.225C395.561 207.089 399.08 208.709 402.701 210.073C413.326 214.07 424.657 215.848 435.996 215.297L436.018 215.297C449.252 214.656 462.138 210.843 473.588 204.178C475.252 203.215 476.893 202.184 478.496 201.085C478.895 200.814 479.302 200.535 479.693 200.257C480.175 199.918 480.657 199.564 481.139 199.21C481.146 199.21 481.146 199.203 481.154 199.203C481.189 199.173 481.227 199.145 481.267 199.12C481.59 198.871 481.921 198.623 482.238 198.382C482.32 198.322 482.403 198.262 482.486 198.194C482.508 198.179 482.528 198.161 482.546 198.141C482.734 198.006 482.915 197.855 483.103 197.712C483.291 197.569 483.472 197.419 483.66 197.268C483.692 197.248 483.722 197.225 483.751 197.2C483.961 197.027 484.172 196.862 484.383 196.688C484.601 196.515 484.812 196.335 485.015 196.161C485.226 195.988 485.429 195.815 485.64 195.635C485.821 195.484 486.009 195.326 486.19 195.16C486.25 195.115 486.302 195.062 486.363 195.01C486.386 194.987 486.411 194.967 486.438 194.949C486.686 194.739 486.927 194.52 487.168 194.302C487.229 194.249 487.281 194.197 487.341 194.144C487.71 193.813 488.079 193.482 488.44 193.135C488.523 193.06 488.614 192.977 488.696 192.902C488.779 192.827 488.854 192.751 488.937 192.676C489.043 192.571 489.155 192.473 489.261 192.368C489.532 192.112 489.795 191.848 490.066 191.585L490.954 192.338L491.278 192.609L491.286 192.609L491.384 192.699L491.737 192.992L496.992 197.434L497.105 197.531L497.195 197.599L497.79 198.104L498.979 199.112L500.168 200.114L500.342 200.257L505.874 204.924L506.642 205.571L511.979 210.073L539.605 233.386L540.569 234.198L578.38 266.1L588.076 274.283L591.681 277.324C592.447 277.972 593.332 278.462 594.287 278.767C595.242 279.072 596.248 279.186 597.247 279.102C598.246 279.019 599.219 278.739 600.11 278.278C601 277.818 601.792 277.187 602.438 276.421C602.98 275.785 603.41 275.062 603.71 274.283C604.257 272.901 604.386 271.39 604.083 269.936C603.779 268.481 603.055 267.148 602.002 266.1ZM383.95 91.6033C391.502 82.6541 401.431 76.0239 412.591 72.4786C423.752 68.9335 435.687 68.6178 447.019 71.5684C458.351 74.5188 468.617 80.615 476.631 89.1526C484.646 97.6902 490.081 108.321 492.31 119.817C492.407 120.321 492.498 120.818 492.581 121.322C492.889 123.121 493.115 124.943 493.251 126.765C493.288 127.269 493.326 127.766 493.348 128.27C493.416 129.399 493.446 130.536 493.446 131.665C493.451 138.514 492.316 145.317 490.089 151.794L490.089 151.801C487.6 159.064 483.778 165.798 478.82 171.659C478.715 171.78 478.609 171.908 478.496 172.028C477.503 173.202 476.456 174.332 475.38 175.408C475.373 175.416 475.365 175.431 475.357 175.438C474.988 175.807 474.612 176.183 474.236 176.53C473.468 177.275 472.685 177.982 471.887 178.66C470.69 179.706 469.463 180.687 468.206 181.603C467.785 181.912 467.363 182.213 466.934 182.514C466.513 182.815 466.083 183.101 465.654 183.387C464.796 183.959 463.923 184.509 463.042 185.028C462.606 185.292 462.154 185.548 461.71 185.796C461.266 186.052 460.814 186.293 460.362 186.526C459.911 186.767 459.459 187 459 187.226C458.089 187.686 457.171 188.115 456.237 188.514C455.771 188.724 455.304 188.92 454.837 189.101C454.544 189.221 454.257 189.342 453.964 189.447C453.849 189.5 453.731 189.545 453.61 189.583C453.452 189.65 453.294 189.71 453.136 189.763C453.085 189.786 453.032 189.807 452.978 189.823C452.654 189.951 452.338 190.064 452.007 190.177C451.532 190.35 451.058 190.508 450.576 190.659C450.095 190.817 449.62 190.968 449.139 191.103C448.657 191.254 448.168 191.389 447.686 191.517C447.197 191.653 446.715 191.781 446.225 191.893C445.706 192.029 445.187 192.149 444.66 192.262C444.201 192.368 443.749 192.458 443.29 192.541C442.861 192.631 442.424 192.707 441.995 192.782C441.393 192.887 440.791 192.985 440.181 193.068C439.85 193.121 439.526 193.166 439.195 193.196C439.052 193.218 438.916 193.233 438.781 193.249C438.359 193.309 437.938 193.354 437.524 193.391C437.411 193.399 437.305 193.414 437.2 193.422C436.741 193.467 436.274 193.504 435.815 193.542C434.829 193.61 433.85 193.655 432.864 193.677C432.367 193.685 431.863 193.693 431.366 193.693C430.869 193.693 430.372 193.685 429.876 193.67C429.876 193.67 429.876 193.677 429.868 193.67C429.861 193.677 429.861 193.677 429.853 193.67C429.852 193.671 429.851 193.672 429.85 193.672C429.848 193.673 429.847 193.673 429.845 193.673C429.844 193.673 429.843 193.673 429.841 193.672C429.84 193.672 429.839 193.671 429.838 193.67C429.813 193.677 429.787 193.677 429.763 193.67C429.409 193.67 429.055 193.655 428.709 193.632C428.453 193.625 428.189 193.617 427.926 193.595C427.572 193.58 427.219 193.557 426.865 193.527C426.752 193.527 426.639 193.512 426.526 193.504C426.473 193.503 426.42 193.498 426.368 193.489C426.007 193.459 425.638 193.429 425.276 193.391C425.096 193.376 424.908 193.361 424.727 193.339C424.177 193.279 423.628 193.211 423.086 193.136C422.468 193.06 421.851 192.97 421.241 192.857C420.955 192.819 420.677 192.767 420.398 192.714C420.03 192.654 419.661 192.586 419.292 192.511C418.908 192.436 418.524 192.36 418.14 192.27C417.831 192.202 417.515 192.134 417.207 192.059C417.056 192.029 416.906 191.991 416.763 191.954C415.972 191.766 415.189 191.562 414.414 191.336C413.925 191.201 413.435 191.058 412.954 190.907C412.291 190.704 411.636 190.486 410.981 190.252C410.725 190.17 410.477 190.079 410.221 189.981C409.965 189.899 409.717 189.801 409.461 189.703C409.227 189.62 408.994 189.53 408.768 189.439C408.392 189.297 408.023 189.146 407.654 188.995C406.894 188.687 406.149 188.363 405.403 188.017C404.982 187.814 404.56 187.618 404.146 187.415C402.513 186.624 400.904 185.746 399.321 184.78C398.93 184.547 398.538 184.298 398.147 184.05C397.657 183.749 397.183 183.432 396.709 183.116C396.446 182.936 396.19 182.763 395.934 182.582C395.459 182.251 394.993 181.912 394.534 181.573C394.293 181.4 394.052 181.219 393.818 181.039C392.983 180.406 392.162 179.744 391.357 179.066C390.973 178.743 390.589 178.412 390.213 178.073C390.055 177.937 389.896 177.794 389.738 177.651C389.558 177.486 389.377 177.328 389.204 177.155L389.189 177.14C388.926 176.906 388.662 176.658 388.406 176.409C388.007 176.033 387.616 175.649 387.239 175.258C386.848 174.874 386.471 174.475 386.103 174.083C385.726 173.692 385.365 173.293 385.011 172.886C384.65 172.487 384.296 172.081 383.95 171.667C383.611 171.276 383.28 170.869 382.964 170.47C382.196 169.521 381.463 168.555 380.766 167.572C380.442 167.12 380.133 166.668 379.832 166.209C379.508 165.743 379.2 165.268 378.906 164.794C378.598 164.32 378.304 163.838 378.018 163.349C378.011 163.332 378 163.317 377.988 163.304C377.423 162.348 376.881 161.384 376.377 160.406C375.858 159.412 375.368 158.408 374.909 157.395C374.676 156.89 374.45 156.378 374.239 155.866C373.802 154.835 373.396 153.804 373.02 152.757C372.831 152.253 372.658 151.749 372.485 151.237C372.48 151.203 372.47 151.17 372.455 151.139C372.109 150.1 371.793 149.054 371.514 148C371.507 147.985 371.507 147.97 371.499 147.955C371.356 147.436 371.221 146.916 371.1 146.389C370.98 145.93 370.874 145.471 370.776 145.004C370.664 144.485 370.551 143.965 370.453 143.438C370.4 143.167 370.347 142.896 370.302 142.625C370.257 142.4 370.219 142.166 370.182 141.94C370.144 141.715 370.106 141.481 370.069 141.248C369.993 140.789 369.926 140.329 369.866 139.87C369.79 139.328 369.73 138.786 369.67 138.237C369.602 137.582 369.542 136.927 369.489 136.265C369.452 135.82 369.429 135.369 369.406 134.917C369.384 134.503 369.361 134.089 369.354 133.675C369.346 133.653 369.346 133.629 369.354 133.607C369.353 133.606 369.352 133.605 369.351 133.604C369.351 133.603 369.351 133.601 369.351 133.6C369.351 133.598 369.351 133.597 369.351 133.596C369.352 133.594 369.353 133.593 369.354 133.592C369.346 133.585 369.346 133.585 369.354 133.577C369.353 133.576 369.352 133.575 369.351 133.574C369.351 133.573 369.351 133.571 369.351 133.57C369.351 133.568 369.351 133.567 369.351 133.566C369.352 133.564 369.353 133.563 369.354 133.562C369.346 133.397 369.339 133.231 369.339 133.065C369.324 132.576 369.316 132.087 369.316 131.598C369.316 131.153 369.324 130.717 369.331 130.273C369.346 129.655 369.369 129.038 369.399 128.421C369.399 128.285 369.414 128.157 369.422 128.022C369.429 127.886 369.436 127.758 369.444 127.623C369.459 127.337 369.482 127.051 369.512 126.765C369.511 126.712 369.513 126.659 369.519 126.607C369.542 126.283 369.572 125.959 369.602 125.636C369.662 124.988 369.738 124.333 369.82 123.686C369.866 123.362 369.903 123.039 369.956 122.715C369.986 122.489 370.024 122.256 370.061 122.022C370.091 121.789 370.129 121.556 370.174 121.322C370.227 121.014 370.28 120.698 370.34 120.381C370.37 120.193 370.408 120.005 370.445 119.817C370.588 119.064 370.746 118.311 370.919 117.559C371.092 116.798 371.288 116.046 371.499 115.293C371.702 114.532 371.928 113.772 372.169 113.012C372.282 112.628 372.402 112.252 372.538 111.875C372.786 111.115 373.05 110.362 373.343 109.617C373.479 109.248 373.622 108.872 373.78 108.503C374.081 107.758 374.397 107.012 374.721 106.282C374.886 105.913 375.052 105.545 375.233 105.176C375.572 104.445 375.925 103.715 376.309 103C376.678 102.27 377.077 101.555 377.484 100.847C377.89 100.14 378.311 99.4321 378.756 98.7321C378.959 98.3857 379.185 98.032 379.418 97.6932C379.87 97.0007 380.344 96.3081 380.826 95.6306C381.797 94.2605 382.843 92.9131 383.95 91.6033ZM369.504 126.765C369.482 127.051 369.459 127.337 369.444 127.623C369.459 127.337 369.482 127.051 369.512 126.765C369.511 126.712 369.513 126.659 369.519 126.607C369.512 126.659 369.512 126.712 369.504 126.765ZM370.438 119.817C370.408 120.005 370.37 120.193 370.34 120.381C370.37 120.193 370.408 120.005 370.445 119.817L370.438 119.817ZM389.189 177.139L389.189 177.147C389.189 177.154 389.197 177.154 389.204 177.154L389.189 177.139Z" fill="#3F3D56" fill-opacity="1.000000" fill-rule="nonzero"/>
		<g opacity="0.300000">
			<path id="Vector" d="M391.358 179.066C379.451 169.018 371.758 154.86 369.807 139.403C367.856 123.946 371.789 108.321 380.826 95.6296C379.639 96.8247 378.492 98.0764 377.384 99.3845C372.128 105.614 368.15 112.817 365.678 120.584C363.206 128.35 362.287 136.528 362.975 144.649C363.663 152.771 365.944 160.677 369.688 167.917C373.431 175.157 378.564 181.589 384.794 186.845C397.374 197.46 413.656 202.643 430.058 201.254C446.46 199.864 461.639 192.016 472.254 179.435C473.359 178.125 474.4 176.784 475.376 175.411C464.386 186.454 449.645 192.959 434.08 193.636C418.515 194.313 403.265 189.112 391.358 179.066Z" fill="#000000" fill-opacity="1.000000" fill-rule="nonzero"/>
		</g>
	</g>
</svg>
