<svg width="69.325500" height="69.611877" viewBox="0 0 69.3255 69.6119" fill="none" xmlns="http://www.w3.org/2000/svg" xmlns:xlink="http://www.w3.org/1999/xlink">
	<desc>
			Created with Pixso.
	</desc>
	<defs/>
	<path id="Vector" d="M35.4687 4.53021C34.9514 4.32104 34.3741 4.32104 33.8568 4.53021L7.99844 14.9656L34.6628 25.7244L61.3271 14.9656L35.4687 4.53021ZM64.9927 18.1963L36.8292 29.5629L36.8292 64.1958L64.9927 52.8293L64.9927 18.2007L64.9927 18.1963ZM32.4963 64.2002L32.4963 29.5585L4.33286 18.1963L4.33286 52.8336L32.4963 64.2002ZM32.2494 0.468872C33.7986 -0.156311 35.5269 -0.156311 37.0761 0.468872L67.965 12.9371C68.3666 13.0995 68.7108 13.3795 68.9533 13.741C69.1958 14.1025 69.3254 14.5291 69.3255 14.9656L69.3255 52.8336C69.325 53.7072 69.065 54.5605 68.5793 55.2837C68.0935 56.0068 67.4041 56.5665 66.6002 56.8906L35.4687 69.455C34.9514 69.6642 34.3741 69.6642 33.8568 69.455L2.72971 56.8906C1.92487 56.5672 1.23462 56.0078 0.748016 55.2846C0.261444 54.5615 0.00088501 53.7077 0 52.8336L0 14.9656C9.15527e-05 14.5291 0.12973 14.1025 0.372223 13.741C0.614716 13.3795 0.958923 13.0995 1.3605 12.9371L32.2494 0.468872Z" fill="#005AD5" fill-opacity="1.000000" fill-rule="evenodd"/>
</svg>
